<?xml version="1.0"?>

<svg version="1.1" id="Layer_1" xmlns="http://www.w3.org/2000/svg" xmlns:xlink="http://www.w3.org/1999/xlink" x="0px" y="0px" viewBox="0 0 4000 4000" style="enable-background:new 0 0 4000 4000;" xml:space="preserve">
<rect x="-47" y="-36" style="display:none;" width="4100" height="4100"></rect>
<g>
&#x9;<g>
&#x9;&#x9;<g>
&#x9;&#x9;&#x9;<path style="fill:#FFFFFF;" d="M2472.07,1881.56c-0.17-7.66-0.49-16.03-3.55-22.81c-16.96-37.55-20.31-77.68-20.56-117.69&#xA;&#x9;&#x9;&#x9;&#x9;c-0.31-51.12-1.4-101.13-21.48-149.8c-14.59-35.35-31-67.45-62.9-90.42c-28.16-20.27-55.57-28.85-87.88-8.36&#xA;&#x9;&#x9;&#x9;&#x9;c-8.58,5.44-22.9,13.73-32.34-1.68c-15.12-24.69-35.69-42.94-59.41-59.63c-26.42-18.59-68-17.35-90.32,7.18&#xA;&#x9;&#x9;&#x9;&#x9;c-6.57,7.22-16.56,11.58-25.48,16.33c-19.39,10.32-39.77,18.57-49.88,40.95c-4.24,9.39-11.61,19.23-20.23,24.41&#xA;&#x9;&#x9;&#x9;&#x9;c-19.9,11.95-41.14,21.86-62.49,31.1c-6.28,2.72-14.72,0.42-22.17,0.42c12.1-7.58,7.98-18.06,8.88-27.09&#xA;&#x9;&#x9;&#x9;&#x9;c1.8-17.92,10.16-32.11,23.61-44.5c5.85-5.39,11.95-16.72,10.09-23.05c-4.5-15.33-10.63-32.31-21.55-43.12&#xA;&#x9;&#x9;&#x9;&#x9;c-15.65-15.48-34.58-31.17-54.98-37.42c-25.65-7.85-53.58,3.56-72.44,20.78c-23.01,21.02-36.37,49.56-34.46,83.59&#xA;&#x9;&#x9;&#x9;&#x9;c0.78,13.94,4.83,31.71-12.36,40.89c-12.7,6.78-25.55,14.26-39.27,17.9c-22.54,5.98-38.55,19.85-54.56,35.52&#xA;&#x9;&#x9;&#x9;&#x9;c-26.05,25.49-30.29,54.22-17.93,87.24c3.41,9.1,5.14,18.86,7.27,28.4c9.04,40.56,18.01,81.14,26.87,121.74&#xA;&#x9;&#x9;&#x9;&#x9;c2.89,13.23,6.74,26.46,7.63,39.86c0.76,11.42-2.89,23.06-3.22,34.65c-0.84,28.91,0.31,57.92-1.56,86.75&#xA;&#x9;&#x9;&#x9;&#x9;c-2.54,38.94-6.71,77.8-11.03,116.6c-3.54,31.75-8.44,63.35-12.44,95.06c-0.76,6.01-0.11,12.21-0.11,18.32&#xA;&#x9;&#x9;&#x9;&#x9;c1.99,0.7,3.97,1.39,5.96,2.09c-9.21,8.51-19.69,16.03-27.31,25.78c-10.35,13.24-20.15,27.44-27.14,42.63&#xA;&#x9;&#x9;&#x9;&#x9;c-6.71,14.59-10.95,30.73-13.67,46.63c-2.51,14.71-15.79,24.19-14.63,41.52c0.91,13.52-6.63,28.48-13.12,41.44&#xA;&#x9;&#x9;&#x9;&#x9;c-10.82,21.6-30.54,41.43-6.36,66.12c0.62,0.63,0.52,1.91,1.01,2.73c7.05,11.73,13.15,24.21,21.45,34.98&#xA;&#x9;&#x9;&#x9;&#x9;c15.7,20.38,54.02,28.89,77.01,18.39c14.28-6.52,16.58-13.76,8.18-26.15c-8.5-12.54-16.37-25.59-25.78-37.4&#xA;&#x9;&#x9;&#x9;&#x9;c-17.23-21.61-5.7-45.17-5.63-67.9c0.01-2.92,4.4-5.83,9.93-12.66c4.28,6.31,7.09,11.54,11,15.77c2.11,2.29,6.08,2.86,9.21,4.2&#xA;&#x9;&#x9;&#x9;&#x9;c1.27-3.41,3.43-6.78,3.61-10.25c0.34-6.48-0.47-13.02-0.81-19.62c-5.41,0.58-12.86,1.38-21.46,2.3&#xA;&#x9;&#x9;&#x9;&#x9;c3.73-10.2,7.23-18.48,9.73-27.05c2.21-7.57,1.7-16.3,5.23-23.04c6.32-12.06,14.89-22.93,22.29-34.45&#xA;&#x9;&#x9;&#x9;&#x9;c5.9-9.18,11.47-18.56,17.19-27.86c1.89-0.26,4.13-0.01,5.52-0.98c22.39-15.6,38.91-37.13,52.72-59.69&#xA;&#x9;&#x9;&#x9;&#x9;c13.89-22.68,22.74-48.42,34.12-72.66c4.43-9.43,9.75-18.43,16.29-30.66c3.89,9.99,7.69,16.49,8.87,23.43&#xA;&#x9;&#x9;&#x9;&#x9;c2.88,16.91,13.43,24.85,29.23,25.74c10.98,0.62,22.08-1.48,33.15-1.87c10.14-0.36,20.3-0.08,29.11-0.08&#xA;&#x9;&#x9;&#x9;&#x9;c-1.27,12.53-3.18,21.6-2.89,30.59c0.67,20.7,1.85,40.92,6.2,61.85c6.47,31.11,12.19,64.42-1.42,96.79&#xA;&#x9;&#x9;&#x9;&#x9;c-6.85,16.29,2.97,29.22,20.7,30.27c19.93,1.17,40.59-1.45,59.7,2.94c20.84,4.79,40.79,9.54,62.41,6.94&#xA;&#x9;&#x9;&#x9;&#x9;c10-1.2,21.28-2.13,21.28-12.63c0-6.22-9.75-14.4-16.96-18.28c-18.92-10.18-38.49-19.43-58.51-27.21&#xA;&#x9;&#x9;&#x9;&#x9;c-15-5.83-21.21-16.15-21.82-30.93c-0.16-3.8,0.86-9.61,3.33-11.04c2.81-1.62,8.26-0.23,11.84,1.42&#xA;&#x9;&#x9;&#x9;&#x9;c5.5,2.54,10.38,6.43,15.53,9.75c1.01-1.51,2.03-3.02,3.04-4.53c-9.78-7.72-19.56-15.44-32.12-25.35&#xA;&#x9;&#x9;&#x9;&#x9;c0-16.67-0.73-38.53,0.27-60.31c0.62-13.47,1.28-27.96,6.54-39.97c8.78-20.05,4.62-37.53-2.34-56.45&#xA;&#x9;&#x9;&#x9;&#x9;c-13.12-35.69-24.83-71.9-37.14-107.89c-8.79-25.69-14.34-52.49-31.91-74.79c-8.29-10.52-13.94-23.67-18.29-36.47&#xA;&#x9;&#x9;&#x9;&#x9;c-1.68-4.95,2.33-16.83,5.79-17.73c21.57-5.63,43.7-12.35,65.67-12.44c35.77-0.14,71.55,4.64,107.34,7.11&#xA;&#x9;&#x9;&#x9;&#x9;c7.29,0.5,14.68-0.44,21.98-0.01c28.93,1.68,53.72-3.76,66.66-34.05c4.18-9.79,11.51-18.18,16.75-27.57&#xA;&#x9;&#x9;&#x9;&#x9;c10.47-18.76,21.1-37.48,30.41-56.81c4.22-8.76,5.47-18.95,8.58-30.38c4.11,5.43,6.05,9.8,9.4,12.13&#xA;&#x9;&#x9;&#x9;&#x9;c27.32,19.03,25.17,47.28,24.35,75.3c-0.36,12.41-0.74,24.88,0.07,37.25c1.17,17.78,3.04,35.98-9.03,50.67&#xA;&#x9;&#x9;&#x9;&#x9;c-20.15,24.54-36.08,50.94-44.43,81.86c-3.8,14.07-11.18,27.31-13.88,41.5c-7.56,39.68-14.09,79.58-19.84,119.57&#xA;&#x9;&#x9;&#x9;&#x9;c-2.33,16.2-8.19,31.35,1.02,49.48c26.54,52.22,49.79,106.11,74.22,159.4c1.71,3.72,2.53,7.85,3.76,11.78&#xA;&#x9;&#x9;&#x9;&#x9;c-18.04-16.2-36.98-11.17-58.08-6.85c24.87,18.32,47.97,35.33,70.52,51.94c-6.3,15.31-12.2,29.66-18.1,44.01&#xA;&#x9;&#x9;&#x9;&#x9;c1.73,0.74,3.46,1.47,5.19,2.21c4.76-11.08,9.51-22.16,14.27-33.24c-0.81,11.99-3.07,23.21-6.52,34.06&#xA;&#x9;&#x9;&#x9;&#x9;c-0.75,2.36-5.58,4.32-8.8,4.85c-16.24,2.69-32.82,3.84-48.76,7.66c-6.64,1.59-16.3,7.94-16.94,13.08&#xA;&#x9;&#x9;&#x9;&#x9;c-0.88,7.13,3.35,18.9,9.07,22.07c16.44,9.12,34.27,19.18,52.37,21.07c32.05,3.35,64.7,1.29,97.09,0.8&#xA;&#x9;&#x9;&#x9;&#x9;c17.16-0.26,31.67-16.52,28-30.88c-2.02-7.92-5.7-15.47-9.01-23.01c-12.15-27.63-22.06-55.88-20.49-86.6&#xA;&#x9;&#x9;&#x9;&#x9;c0.48-9.34-1.14-16.48-9.52-21.07c-12.63-6.91-16.42-19.12-18.44-31.86c-1.63-10.3-0.32-21.17-2.73-31.21&#xA;&#x9;&#x9;&#x9;&#x9;c-6.56-27.24-14.41-54.18-22.05-82.32c25.68-8.24,57.94-4.3,73.67-34.84c8.42,11.57,9.18,20.99-1.33,28.3&#xA;&#x9;&#x9;&#x9;&#x9;c2.94,5.2,8.23,10.43,7.17,13.35c-7.23,19.82,8.52,33.79,11.02,51.56c-22.28,27.35-22.28,27.35-16.7,42.14&#xA;&#x9;&#x9;&#x9;&#x9;c-7.57-0.95-14.11-2.68-20.52-2.29c-5.08,0.31-10.95,2.13-14.66,5.36c-2.61,2.28-3.82,8.48-2.83,12.17&#xA;&#x9;&#x9;&#x9;&#x9;c4.15,15.57,24,31.15,41.47,29.11c16.51-1.92,26.71,7.11,38.54,14.48c4.55,2.84,9.11,5.67,13.57,8.64&#xA;&#x9;&#x9;&#x9;&#x9;c9.65,6.4,19.92,5.6,26.11-3.06c4.38-6.13,5.78-15.84,5.27-23.75c-1.28-19.82-6.85-39.63-6-59.23&#xA;&#x9;&#x9;&#x9;&#x9;c0.67-15.48,5.26-30.26-4.38-44.62c-1.58-2.36-0.57-6.73-0.18-10.1c1.1-9.57,3.5-19.11,3.54-28.67&#xA;&#x9;&#x9;&#x9;&#x9;c0.06-14.08-3.72-28.47-1.89-42.19c3.9-29.26,11.49-58.03,15.5-87.28c5.86-42.79,10.58-85.77,14.43-128.79&#xA;&#x9;&#x9;&#x9;&#x9;C2473.6,1921.94,2472.5,1901.68,2472.07,1881.56z M2331.52,1491.61c-13.26,14.2-26.24,7.96-39.21,0&#xA;&#x9;&#x9;&#x9;&#x9;C2305.39,1491.61,2318.46,1491.61,2331.52,1491.61z M2017.55,1518.65c18.95,4.89,19.03,4.43,20.64-15.68&#xA;&#x9;&#x9;&#x9;&#x9;c0.6-7.52,4.1-14.82,6.01-21.3c30.84,8.39,14.3,34.42,25.38,49.39c-0.82,0.97-1.64,1.95-2.47,2.92c-3.8-0.96-7.6-1.96-11.42-2.87&#xA;&#x9;&#x9;&#x9;&#x9;c-8.46-2.03-17.91-6.79-19.17,8.58c-0.11,1.33-10.71,4.21-12.11,2.61c-5.23-6.01-8.65-13.59-12.84-20.72&#xA;&#x9;&#x9;&#x9;&#x9;C2015.87,1519.42,2016.86,1518.47,2017.55,1518.65z M1980.5,1535.38c5.93-3.15,12.1-5.85,18.22-8.79&#xA;&#x9;&#x9;&#x9;&#x9;c9.08,13.3,16.71,24.48,25.38,37.18c-18.41,18.35-38.92,34.81-66.96,38.46c-3.76,0.49-8.94-1-11.73-3.5&#xA;&#x9;&#x9;&#x9;&#x9;c-13.21-11.91-25.82-24.47-38.61-36.84c-1.65-1.6-3.08-3.42-4.56-6.71C1934.17,1569.5,1956.21,1548.3,1980.5,1535.38z&#xA;&#x9;&#x9;&#x9;&#x9; M1844.16,1698.21c-13.14,13.58-25.85,13.01-37.78-1.9c-6.2-7.75-0.27-28.34,9.23-31.13c1.72-0.5,5.56,0.9,5.89,2.11&#xA;&#x9;&#x9;&#x9;&#x9;c0.64,2.35,0.05,5.45-1.02,7.79c-2.84,6.2-6.22,12.15-9.38,18.2c1.69,0.87,3.38,1.75,5.07,2.62c4.15-6.7,8.3-13.41,12.96-20.94&#xA;&#x9;&#x9;&#x9;&#x9;c8.07,4.43,16.35,8.4,24.01,13.33c7.26,4.67,13.87,10.35,19.27,14.46c-6.68,6.47-13.98,13.54-21.28,20.61&#xA;&#x9;&#x9;&#x9;&#x9;c0.35,2.3,0.7,4.59,1.05,6.89c-17.07-6.52-34.15-13.05-51.22-19.57c0.66-1.8,1.32-3.6,1.97-5.4c6.74,2.89,13.63,5.5,20.2,8.74&#xA;&#x9;&#x9;&#x9;&#x9;c15.44,7.6,27.41-0.52,27.42-19.49C1848.21,1695.85,1845.73,1696.59,1844.16,1698.21z M1850.59,1774.28&#xA;&#x9;&#x9;&#x9;&#x9;c2.5,3.63,5.14,7.17,7.43,10.92c1.5,2.47,1.79,6.12,3.82,7.75c19.9,15.97,12.22,36.87,11.21,57.86&#xA;&#x9;&#x9;&#x9;&#x9;c-27.3-7.98-44.94-41.96-34.91-65.99C1840.01,1780.36,1846.33,1777.75,1850.59,1774.28z M1871.33,1787.16&#xA;&#x9;&#x9;&#x9;&#x9;c0-6.44-1.27-13.28,0.61-19.12c0.78-2.43,8.59-4.41,12.63-3.63c10.66,2.06,21.02,5.75,32.51,9.08&#xA;&#x9;&#x9;&#x9;&#x9;c-14.52,6.37-35.13-13.69-41.69,13.19C1874.04,1786.84,1872.68,1787,1871.33,1787.16z M1862.95,1670.93&#xA;&#x9;&#x9;&#x9;&#x9;c3.41-4.66,6.43-8.78,10.08-13.78c5.43,2.72,10.39,5.2,15.8,7.91C1882.17,1677.81,1873.76,1677.54,1862.95,1670.93z&#xA;&#x9;&#x9;&#x9;&#x9; M1883.65,1608.16c-14.45,17.78-29.91,33.72-24.12,59.14c-13.41-4.78-23.56-8.12-33.48-12.02c-12.17-4.78-13.64-16.61-2.97-37.56&#xA;&#x9;&#x9;&#x9;&#x9;c2.38,11.48,3.86,20.43,6.33,29.1c0.55,1.94,5.69,4.73,6.79,4.04c17.99-11.26,31.89-26.69,32.73-48.32&#xA;&#x9;&#x9;&#x9;&#x9;c0.28-7.1-9.06-16.68-16.4-21.37c-7.58-4.84-9.58-10.34-6.95-16.66c1.78-4.27,7.52-8.55,12.22-9.64&#xA;&#x9;&#x9;&#x9;&#x9;c21.9-5.09,36.37,10.97,52.87,20.54c7.49,4.34,14.65,10.37,19.76,17.27c3,4.06,3.63,12.22,1.53,16.79&#xA;&#x9;&#x9;&#x9;&#x9;c-1.21,2.62-10.07,2.62-15.38,2.28C1904.99,1611.01,1893.47,1609.28,1883.65,1608.16z M1903.5,1539.44&#xA;&#x9;&#x9;&#x9;&#x9;c3-9.65,5.49-17.67,7.99-25.69C1918.18,1531.56,1917.32,1534.1,1903.5,1539.44z M1800.81,1516.07&#xA;&#x9;&#x9;&#x9;&#x9;c6.42-2.5,10.91-10.53,15.65-16.54c3.29-4.18,5.49-9.22,7.09-11.98c2.97,12.69,5.94,25.38,8.9,38.07&#xA;&#x9;&#x9;&#x9;&#x9;c2.01,0.15,4.03,0.3,6.04,0.45c5.29-10.25,10.58-20.5,17.57-34.04c1.92,4.69,3.09,9.22,5.53,12.92c1.91,2.88,5.4,4.72,8.19,7.01&#xA;&#x9;&#x9;&#x9;&#x9;c1.24-2.53,2.63-5,3.68-7.6c0.98-2.42,0.84-6.05,2.54-7.28c4.32-3.12,9.21-5.69,14.21-7.58c9.7-3.67,16.44-7.72,16.02-20.64&#xA;&#x9;&#x9;&#x9;&#x9;c-0.28-8.55,4.43-18.89,16.82-7.72c1.72,1.54,7.15-1.04,13.17-2.13c-4.04,26.12-8.22,50.29-40.23,49.93&#xA;&#x9;&#x9;&#x9;&#x9;c0,11.15,1.12,20.74-0.31,29.93c-1.49,9.58-7.79,13.52-16.75,6.8c-8.56-6.42-16.47-3.13-25.95-1.7&#xA;&#x9;&#x9;&#x9;&#x9;c-23.43,3.53-32.44,19.62-40.55,38.11c-3.02,6.89-8.73,10.58-15.14,4.9c-17.7-15.69-39.43-27.73-49.85-54.77&#xA;&#x9;&#x9;&#x9;&#x9;C1765.49,1526.94,1783.63,1522.75,1800.81,1516.07z M1674.83,1706.65c-6.63-17.85-13.66-35.56-20.41-53.37&#xA;&#x9;&#x9;&#x9;&#x9;c-1.21-3.18-2.11-6.51-2.82-9.84c-6.93-32.67,10.13-55.05,32.95-74.32c7.23-6.1,17.02-9.08,24.63-14.82&#xA;&#x9;&#x9;&#x9;&#x9;c9.1-6.87,15.04-3.45,21,3.8c21.62,26.36,31.47,54.95,23,89.8c-2.49,10.22,4.6,22.94,7.92,34.33c1.59,5.45,4.33,10.63,7.06,15.66&#xA;&#x9;&#x9;&#x9;&#x9;c13.88,25.57-10.95,38.21-18.8,56.49c-1.58,3.68-4.05,6.99-6.11,10.46c1.35,0.99,2.71,1.97,4.06,2.96&#xA;&#x9;&#x9;&#x9;&#x9;c2.4-2.58,4.89-5.08,7.17-7.75c9.48-11.13,18.85-22.37,28.36-33.47c7.16-8.35,15.15-9.03,24.86-3.7&#xA;&#x9;&#x9;&#x9;&#x9;c10.09,5.54,20.9,9.76,31.89,14.79c-9.1,15.89-19.33,33.74-30.56,53.34c3.81-0.51,5.95-0.59,7.97-1.13&#xA;&#x9;&#x9;&#x9;&#x9;c1.47-0.39,2.78-1.38,5.16-0.59c-11.91,14.01-23.25,28.59-36.1,41.67c-3.6,3.66-12.64,5.48-17.51,3.66&#xA;&#x9;&#x9;&#x9;&#x9;c-9.81-3.65-21.31-8.3-27.13-16.21C1715.65,1783.43,1690.18,1747.99,1674.83,1706.65z M1716.73,2250.11&#xA;&#x9;&#x9;&#x9;&#x9;c-3.38,3.62-6.14,7.82-9.18,11.77c-7.81,7.37-17.29,13.68-22.86,22.46c-11.74,18.5-21.93,38.08-31.56,57.8&#xA;&#x9;&#x9;&#x9;&#x9;c-4.9,10.04-11.48,13.55-22.02,12.47c-10.17-1.04-20.42-1.23-30.61-2.13c-1.61-0.14-3.07-2.04-3.81-2.56&#xA;&#x9;&#x9;&#x9;&#x9;c6.89-15.63,13.57-30.56,20-45.6c1.31-3.07,2.88-6.85,2.22-9.83c-6.17-27.59,12.75-42.62,28.99-59.03&#xA;&#x9;&#x9;&#x9;&#x9;c5.42-5.47,11.51-10.39,16.28-16.37c11.3-14.14,18.44-14.78,35.09-8.38c13.26,5.09,28.03,6.27,45.77,9.93&#xA;&#x9;&#x9;&#x9;&#x9;C1734.99,2231.07,1725.72,2240.46,1716.73,2250.11z M1999.73,2345.51c-15.03,13.44-21.89,13.98-38.19,0&#xA;&#x9;&#x9;&#x9;&#x9;C1973.77,2345.51,1986,2345.51,1999.73,2345.51z M1992.46,2124.46c-0.47,3.24-0.17,7.99-1.88,11.86&#xA;&#x9;&#x9;&#x9;&#x9;c-14.25,32.25-10.52,66.89-13.37,100.58c-1.42,16.76-26.85,37.19-41.02,29.28c-4.72-2.63-6.79-15.47-5.17-22.51&#xA;&#x9;&#x9;&#x9;&#x9;c1.75-7.66,0.28-11.03-4.81-15.8c-3.28-3.07-6.06-8.36-6.22-12.76c-0.68-18.36-0.29-36.75-0.29-55.13&#xA;&#x9;&#x9;&#x9;&#x9;c1.44-0.4,2.88-0.8,4.32-1.21c3.39,2.76,6.78,5.53,10.17,8.29c0.96-0.66,1.92-1.32,2.88-1.99c-4.21-7.56-8.43-15.13-12.52-22.47&#xA;&#x9;&#x9;&#x9;&#x9;C1946.94,2136.62,1968.8,2130.78,1992.46,2124.46z M1904.17,1907.79c18.76,25.2,29.61,54.02,37.43,85.35&#xA;&#x9;&#x9;&#x9;&#x9;c8,32.08,22.29,62.6,33.82,93.81c1.18,3.18,2.39,6.35,3.55,9.54c6.61,18.27,4.72,22.22-14.13,27.55&#xA;&#x9;&#x9;&#x9;&#x9;c-2.77,0.78-8.02,0.47-8.95-1.15c-6.79-11.85-17.19-8.66-27.09-7.2c-6.77,1-13.4,2.83-20.13,4.11&#xA;&#x9;&#x9;&#x9;&#x9;c-17.61,3.35-36.04,11.32-49.61-8.87c-0.61-0.91-4.3,0.24-7,0.47c1.46,7.69,2.76,14.57,4.25,22.41c-6.43,0-11.03,0-15.69,0&#xA;&#x9;&#x9;&#x9;&#x9;c-4.43-12.22-8.88-23.58-12.56-35.18c-1.04-3.27-1.1-9.71,0.52-10.54c21.31-10.9,7-35.58,22.45-48.4&#xA;&#x9;&#x9;&#x9;&#x9;c-1.9-1.37-3.79-2.74-5.69-4.11c-5.32,6.46-11.8,12.29-15.76,19.5c-13.75,25.07-26.5,50.69-39.89,75.96&#xA;&#x9;&#x9;&#x9;&#x9;c-10.94,20.66-21.51,41.57-33.64,61.52c-11.54,18.98-46.86,20.78-61.32,3.53c-3.36-4.01-5.23-10.82-4.88-16.15&#xA;&#x9;&#x9;&#x9;&#x9;c4.88-74.89,14.31-149.12,33.85-221.78c-14.44-10.32-18.83-8.87-22.48,7.37c-2.03,9.03-4.16,18.03-8.03,26.9&#xA;&#x9;&#x9;&#x9;&#x9;c1.23-15.87,2.46-31.74,3.48-44.9c33.39,3.42,66.8,6.85,101.83,10.45c1.66,3.37,4.64,9.4,7.63,15.43&#xA;&#x9;&#x9;&#x9;&#x9;c1.72-0.58,3.45-1.16,5.17-1.73c-1.24-5.69-2.48-11.38-4.04-18.51C1838.83,1939.05,1883.88,1949.28,1904.17,1907.79z&#xA;&#x9;&#x9;&#x9;&#x9; M1934.92,1819.81c-22.33-1.62-43.19-5.23-51.03-31.6c26.71-15.09,43.42,9.57,64.85,17.2&#xA;&#x9;&#x9;&#x9;&#x9;C1951.27,1817.93,1945.28,1820.56,1934.92,1819.81z M1983.56,1789.96c-16.56,4.62-27.2-2.62-39.4-11.86&#xA;&#x9;&#x9;&#x9;&#x9;c-11.13-8.42-24.68-13.87-37.6-19.65c-13.07-5.84-22.68-21.57-20.26-35.63c0.41-2.39,2.65-5.25,1.89-6.94&#xA;&#x9;&#x9;&#x9;&#x9;c-11.24-25.13,6.92-40.06,19.49-56.81c11.43-15.23,23.1-30.29,35.01-45.15c1.81-2.26,5.38-4.16,8.26-4.34&#xA;&#x9;&#x9;&#x9;&#x9;c28.08-1.75,49.45-16.81,70.22-33.83c12.46-10.22,26.16-18.92,39.07-28.6c7.68-5.76,13.65-4.25,20.82,1.63&#xA;&#x9;&#x9;&#x9;&#x9;c12.86,10.54,26.62,19.97,40.98,30.58c-1.15-10.36-1.15-10.36-31.29-31.63c6.9-1.25,11.97-3.67,16.2-2.64&#xA;&#x9;&#x9;&#x9;&#x9;c11.27,2.75,22.5,6.24,33.12,10.89c8.03,3.52,10.57,0.41,12.66-6.34c1.69-5.47,3.98-10.75,6.93-18.6&#xA;&#x9;&#x9;&#x9;&#x9;c4.14,8.79,6.68,14.18,8.83,18.74c15.79,4.93,22.31-20.68,42.37-7.68c-11.72,13.97-22.78,27.3-34.07,40.43&#xA;&#x9;&#x9;&#x9;&#x9;c-1.49,1.74-5.24,1.97-6.08,3.77c-9.44,20.22-22.52,9.2-35.04,4.5c-4.62-1.73-9.32-3.25-14-4.83&#xA;&#x9;&#x9;&#x9;&#x9;c-0.03-0.03-10.51-10.05-26.35-20.75c1.83,1.49,4.96,5.28,2.83,12.95c-2.42,9.16,0.86,11.34,12.39,10.5&#xA;&#x9;&#x9;&#x9;&#x9;c2.92-0.21,6.09,1.26,8.95,2.42c8.45,3.44,16.55,8.13,25.28,10.41c9.09,2.37,12.81,4.94,8.18,14.9&#xA;&#x9;&#x9;&#x9;&#x9;c-10.8,23.23-15.56,47.69-16.78,73.55c-0.63,13.43-9.29,26.37-13.51,39.79c-2.85,9.08-5.42,18.51-6.13,27.94&#xA;&#x9;&#x9;&#x9;&#x9;c-1.41,18.76-7.86,26.36-26.21,29.3c-14.9,2.38-29.58,6.37-44.53,8.08c-12.53,1.43-24.99,7.7-38.17-1.46&#xA;&#x9;&#x9;&#x9;&#x9;C2001.52,1789.39,1990.84,1787.93,1983.56,1789.96z M2252.63,1694.31c-1.14,5.46-4.86,10.38-7.27,15.31&#xA;&#x9;&#x9;&#x9;&#x9;c-13.19-3.63-13.79-4.73-20.94-30.29c-2.42,9.41-5.82,18.7-7.07,28.27c-3.64,27.84-16.23,51.87-30.56,75.24&#xA;&#x9;&#x9;&#x9;&#x9;c-10.46,17.06-20.61,34.37-32.16,50.68c-4.14,5.85-11.77,12.46-18.16,12.85c-17.18,1.05-34.55-1.05-51.84-1.94&#xA;&#x9;&#x9;&#x9;&#x9;c-2.44-0.12-4.86-0.55-7.3-0.63c-21.28-0.74-42.55-1.43-65.05-2.17c0-13.23,0-24.13,0-32.91c27.6-5.26,54.81-9.55,81.55-15.83&#xA;&#x9;&#x9;&#x9;&#x9;c22.66-5.32,27.25-12.86,30.66-36.48c1.72-11.91,5.77-23.47,8.6-35.23c4.87-20.22,11.52-40.24,13.97-60.75&#xA;&#x9;&#x9;&#x9;&#x9;c3.85-32.17,19.14-57.06,42.96-77.36c3.05-2.6,11.45-2.9,14.78-0.57C2230.85,1600.71,2261.39,1652.35,2252.63,1694.31z&#xA;&#x9;&#x9;&#x9;&#x9; M2254.52,1543.26c-10.77,6.53-25.64,6.29-38.71,9.03c-1.1-1.01-2.19-2.02-3.29-3.02c3.97-4.29,7.94-8.58,11.9-12.87l23.42-20.68&#xA;&#x9;&#x9;&#x9;&#x9;c1.78-12.26,10.16-12.12,22.08-9.82C2269.02,1520.73,2266.38,1536.07,2254.52,1543.26z M2270.78,1847.29&#xA;&#x9;&#x9;&#x9;&#x9;c63.1,5.63,123.13,2.88,174.58-38.23c3.25,12.44,5.72,23.27,8.97,33.86c2.58,8.41,1.02,14.36-7.54,17.73&#xA;&#x9;&#x9;&#x9;&#x9;c-30.68,12.08-59.47,29.57-93.96,30.53c-15.95,0.44-31.86,5.08-47.72,4.72c-14.6-0.33-29.11-4.8-44.42-7.59&#xA;&#x9;&#x9;&#x9;&#x9;C2264.52,1872.74,2267.66,1859.96,2270.78,1847.29z M2302.24,1982.46c-1.42-0.87-2.84-1.74-4.27-2.6&#xA;&#x9;&#x9;&#x9;&#x9;c14.72-24.12,29.45-48.23,44.17-72.35c1.49,0.91,2.97,1.81,4.46,2.72C2334.93,1936.21,2330.31,1966.51,2302.24,1982.46z&#xA;&#x9;&#x9;&#x9;&#x9; M2315.09,1993.52c-4.82,8.41-8.61,15.02-14.42,25.16c-5.46-7.58-9.4-13.07-14.06-19.53&#xA;&#x9;&#x9;&#x9;&#x9;C2297.89,1996.92,2305.16,1995.48,2315.09,1993.52z M2302.31,1916.83c-2.42,6.66-4.23,11.64-6.04,16.61&#xA;&#x9;&#x9;&#x9;&#x9;c0.83,0.61,1.67,1.23,2.5,1.84c7.66-9.57,15.32-19.14,22.98-28.71c2.08,1.42,4.17,2.83,6.25,4.25&#xA;&#x9;&#x9;&#x9;&#x9;c-6.7,11.32-13.02,22.9-20.24,33.87c-5.09,7.73-11.61,14.5-17.08,22c-2.53,3.47-4.93,7.46-5.85,11.55&#xA;&#x9;&#x9;&#x9;&#x9;c-0.99,4.43-0.18,9.27-0.16,13.93c-9.18-2.85-18.76-4.86-27.38-8.91c-4.38-2.06-7.02-7.79-9.05-10.2&#xA;&#x9;&#x9;&#x9;&#x9;C2266.47,1954.1,2283.62,1936.27,2302.31,1916.83z M2221.66,1957.18c8.97,30.99,36.93,43.11,59.6,60.58&#xA;&#x9;&#x9;&#x9;&#x9;c3.72,2.87,5.84,7.83,9.97,13.6c-29.13,1.17-65.24-38.23-73.05-75.77C2219.72,1956.25,2221.47,1956.49,2221.66,1957.18z&#xA;&#x9;&#x9;&#x9;&#x9; M2259.95,2040.98c-2.92,0.02-7.02,1.29-8.57-0.15c-7-6.55-13.27-13.87-19.81-20.92c0.97-1.13,1.95-2.26,2.92-3.39&#xA;&#x9;&#x9;&#x9;&#x9;c7.77,5.61,15.73,10.99,23.18,17C2259.34,2034.87,2259.23,2038.43,2259.95,2040.98z M2204.55,1996.29&#xA;&#x9;&#x9;&#x9;&#x9;c6.31,9.29,12.92,16.6,16.77,25.15c12.22,27.17,34.38,44.76,56.85,62.4c3.83,3.01,5.98,8.17,7.74,13.16&#xA;&#x9;&#x9;&#x9;&#x9;C2255.1,2088.65,2199.55,2020.14,2204.55,1996.29z M2197.55,2116.52c6.35-0.86,12.7-1.73,19.05-2.59&#xA;&#x9;&#x9;&#x9;&#x9;c0.57-1.36,1.14-2.71,1.7-4.07c-5.73-3.18-11.45-6.36-17.3-9.6c2.08-13.06-12.28-31.04,9.53-45.48&#xA;&#x9;&#x9;&#x9;&#x9;c15.43,14.74,31.23,29.85,49.85,47.65c-16.45,9.76-30.7,19.5-46.19,26.51c-3.9,1.76-11.76-5.22-17.8-8.19&#xA;&#x9;&#x9;&#x9;&#x9;C2196.79,2119.33,2197.17,2117.92,2197.55,2116.52z M2271.69,2116.6c-2.01,13.9-53.12,32.41-67.82,23.42&#xA;&#x9;&#x9;&#x9;&#x9;C2225.79,2132.46,2249.59,2124.24,2271.69,2116.6z M2182.97,2110.14c2.61,19.95,5.43,41.57,8.34,63.84&#xA;&#x9;&#x9;&#x9;&#x9;C2181.09,2167.15,2178.89,2147.46,2182.97,2110.14z M2338.21,2483.18c-0.8,1.21-1.6,2.42-2.4,3.64&#xA;&#x9;&#x9;&#x9;&#x9;c-11.51-1.11-17.04-13.01-26.36-18.07c-9.06-4.92-12.96-19.3-30.66-14.77c14.77,13.68,27.73,25.69,40.7,37.7&#xA;&#x9;&#x9;&#x9;&#x9;c-0.91,1.44-1.81,2.87-2.72,4.31c-5.1-3.38-10.46-6.43-15.24-10.23c-5.74-4.57-11.1-9.64-16.41-14.72&#xA;&#x9;&#x9;&#x9;&#x9;c-4.72-4.52-9.15-9.34-13.7-14.03c-1.88,1.95-3.76,3.9-5.65,5.85c11.97,12.95,23.93,25.89,35.9,38.84&#xA;&#x9;&#x9;&#x9;&#x9;c-0.35,0.72-0.69,1.44-1.04,2.16c-7.31-4.67-15.3-8.57-21.72-14.25c-5.77-5.1-10.01-12.01-14.57-18.37&#xA;&#x9;&#x9;&#x9;&#x9;c-5.33-7.45-10.76-8.84-15.52-0.06c-5.64,10.4-11.78,11.09-20.84,3.8c-5.55-4.46-12.57-7.1-19.86-11.07&#xA;&#x9;&#x9;&#x9;&#x9;c2.75-3.15,4.81-5.52,6.96-7.98c14.61,17.14,19.08,16.82,37.53,3.55c12.02-8.66,25.7-15.01,41.04-23.77&#xA;&#x9;&#x9;&#x9;&#x9;c-2.79-8.7-6.62-20.64-10.45-32.58c1.29-0.59,2.58-1.18,3.87-1.78c7.15,13.22,14.31,26.44,22.13,40.88&#xA;&#x9;&#x9;&#x9;&#x9;c-2.01,1.9-4.92,4.63-8.91,8.39C2313.47,2461.93,2325.84,2472.56,2338.21,2483.18z M2275.9,2357.95&#xA;&#x9;&#x9;&#x9;&#x9;c9.51-0.21,14.33,18.14,5.97,35.78C2279.89,2381.88,2277.91,2370.03,2275.9,2357.95z M2306.11,2304.26&#xA;&#x9;&#x9;&#x9;&#x9;c0.64,15.84,8.09,31.4,13.18,49.74c-9.39-0.54-21.19,0.79-31.6-2.39c-10.43-3.19-16.96-3.89-20.37,12.66&#xA;&#x9;&#x9;&#x9;&#x9;c-28.09-61.41-54.37-118.86-82.33-180.01c8.79,0.55,12.6,0.44,16.29,1.08c21.21,3.68,42.53,6.92,63.5,11.71&#xA;&#x9;&#x9;&#x9;&#x9;c6.04,1.38,13.84,6.21,16.02,11.46C2293.53,2239.17,2304.73,2270.14,2306.11,2304.26z M2412.51,2350.76&#xA;&#x9;&#x9;&#x9;&#x9;c-8.02-11.75-16.52-23.22-23.68-35.48c-1.5-2.56,1.94-8.01,3.11-12.12c1.4,0.03,2.8,0.06,4.2,0.09&#xA;&#x9;&#x9;&#x9;&#x9;c1.58,7.86,1.84,16.33,5.11,23.4c3.57,7.71,9.95,14.13,15.1,21.11C2415.06,2348.76,2413.78,2349.76,2412.51,2350.76z&#xA;&#x9;&#x9;&#x9;&#x9; M2433.96,2243.17c2.98,10.19,4.55,19.77-7.57,24.65c-9.58,3.86-28.24-4.27-31.05-13.74c-9.01-30.34-17.39-60.86-26.13-91.74&#xA;&#x9;&#x9;&#x9;&#x9;c23.84,1.8,43.58,3.3,67.43,5.1c-1.39,19.68-2.99,39.85-4.13,60.05C2432.22,2232.7,2432.51,2238.22,2433.96,2243.17z&#xA;&#x9;&#x9;&#x9;&#x9; M2463.37,1902.57c-5.45,58.97-12.2,117.82-18.88,176.67c-2.02,17.83-3.9,35.88-8.53,53.12c-2.33,8.7-9.21,20.11-16.6,22.57&#xA;&#x9;&#x9;&#x9;&#x9;c-10.16,3.38-22.79-0.36-34.31-1.52c-2.75-0.28-5.26-2.52-7.97-3.66c-10.32-4.34-18.27-6.69-19.51,9.93&#xA;&#x9;&#x9;&#x9;&#x9;c-1.01,13.58-21.58,25.11-35.69,23.76c-7.6-0.72-15.5,0.51-23.14,1.69c-15.41,2.39-23.72-5.33-21.65-20.72&#xA;&#x9;&#x9;&#x9;&#x9;c2.05-15.22-2.17-18.8-17.33-15.15c-15.42,3.71-30.9,7.12-46.36,10.67c-0.35-1.16-0.69-2.32-1.04-3.48&#xA;&#x9;&#x9;&#x9;&#x9;c18.63-8.16,37.75-15.4,55.7-24.84c10.24-5.39,18.76-14.18,27.71-21.85c3.65-3.13,5.95-7.85,9.63-10.93&#xA;&#x9;&#x9;&#x9;&#x9;c8.49-7.09,13.04-14.58,4.1-25.67c-4.81,1.34-10.58,2.94-17,4.72c-3.01-11.25-2.33-18.25,10.1-23.07&#xA;&#x9;&#x9;&#x9;&#x9;c15.86-6.15,23.71-24.47,17.94-38.26c-6.1,10.26-11.8,19.85-19.52,32.83c19.11-46.29,36.62-88.72,54.6-132.28&#xA;&#x9;&#x9;&#x9;&#x9;c13.09,10.63,7.09,25.42,6.77,38.49c-0.33,13.42-2.36,26.8-1.39,40.65c14.95-30.34,11.69-64.91,22.32-96.79&#xA;&#x9;&#x9;&#x9;&#x9;c0.84,2.44,1.67,4.88,2.53,7.38c0.8-0.35,2.18-0.61,2.23-1.03c1.59-13.2,12.74-14.47,22.16-17.93&#xA;&#x9;&#x9;&#x9;&#x9;c15.55-5.71,31.09-11.45,48.69-17.94C2466.38,1878.27,2464.4,1891.47,2463.37,1902.57z"></path>
&#x9;&#x9;</g>
&#x9;&#x9;<g>
&#x9;&#x9;&#x9;<path style="fill:#FFFFFF;" d="M1937.91,2062.66c-9.46,5-16.84,8.91-25.88,13.7C1926,2083.97,1934.43,2079.52,1937.91,2062.66z"></path>
&#x9;&#x9;</g>
&#x9;&#x9;<g>
&#x9;&#x9;&#x9;<path style="fill:#FFFFFF;" d="M1894.54,2098.16c7.33-2.64,14.66-5.28,21.99-7.92c-0.73-2.2-1.47-4.4-2.2-6.6&#xA;&#x9;&#x9;&#x9;&#x9;c-7.42,2.17-14.84,4.35-22.27,6.52C1892.89,2092.83,1893.72,2095.5,1894.54,2098.16z"></path>
&#x9;&#x9;</g>
&#x9;&#x9;<g>
&#x9;&#x9;&#x9;<path style="fill:#FFFFFF;" d="M2384.5,2052.59c-0.92-2.74-4.12-6.33-6.47-6.5c-2.28-0.16-6.42,3.21-7.02,5.69&#xA;&#x9;&#x9;&#x9;&#x9;c-4.29,17.8-7.89,35.78-11.7,53.7C2375.14,2099.43,2388.77,2065.27,2384.5,2052.59z"></path>
&#x9;&#x9;</g>
&#x9;&#x9;<g>
&#x9;&#x9;&#x9;<path style="fill:#FFFFFF;" d="M2370.65,2133.9c1.21,4.65,5.8,8.69,9.7,12.17c0.84,0.75,4.78-1.97,8.73-3.74&#xA;&#x9;&#x9;&#x9;&#x9;c-4.56-7.52-8.05-13.27-11.54-19.02C2375.05,2126.89,2369.93,2131.16,2370.65,2133.9z"></path>
&#x9;&#x9;</g>
&#x9;&#x9;<g>
&#x9;&#x9;&#x9;<path style="fill:#FFFFFF;" d="M2063.47,1829.89c0.42,2.48,0.83,4.97,1.25,7.45c14.89-2.56,29.78-5.12,44.67-7.68&#xA;&#x9;&#x9;&#x9;&#x9;c-0.41-2.43-0.82-4.86-1.23-7.29C2093.27,1824.87,2078.37,1827.38,2063.47,1829.89z"></path>
&#x9;&#x9;</g>
&#x9;&#x9;<g>
&#x9;&#x9;&#x9;<path style="fill:#FFFFFF;" d="M1958.64,2205.43c0,16.11,0,31.41,0,47.58C1970.02,2242.97,1970.11,2213.67,1958.64,2205.43z"></path>
&#x9;&#x9;</g>
&#x9;&#x9;<g>
&#x9;&#x9;&#x9;<path style="fill:#FFFFFF;" d="M2095.33,1565.24c-0.67-0.54-1.17-0.79-1.17-0.79&#xA;&#x9;&#x9;&#x9;&#x9;C2094.55,1564.71,2094.94,1564.98,2095.33,1565.24z"></path>
&#x9;&#x9;</g>
&#x9;</g>
&#x9;<g>
&#x9;&#x9;<g>
&#x9;&#x9;&#x9;<path style="fill:#FFFFFF;" d="M2000,907c-603.64,0-1093,489.36-1093,1093s489.36,1093,1093,1093s1093-489.36,1093-1093&#xA;&#x9;&#x9;&#x9;&#x9;S2603.64,907,2000,907z M2994.93,2420.3c-27.06,63.99-60.54,125.68-99.55,183.41c-38.63,57.18-82.99,110.95-131.86,159.81&#xA;&#x9;&#x9;&#x9;&#x9;c-48.86,48.88-102.63,93.23-159.81,131.86c-57.73,39-119.43,72.49-183.41,99.55c-65.15,27.56-133.35,48.73-202.67,62.92&#xA;&#x9;&#x9;&#x9;&#x9;c-71.13,14.55-144.36,21.94-217.63,21.94c-73.27,0-146.5-7.39-217.63-21.94c-69.31-14.19-137.51-35.36-202.67-62.92&#xA;&#x9;&#x9;&#x9;&#x9;c-63.99-27.06-125.68-60.54-183.41-99.55c-57.18-38.63-110.95-82.99-159.81-131.86c-48.88-48.86-93.23-102.63-131.86-159.81&#xA;&#x9;&#x9;&#x9;&#x9;c-39-57.73-72.49-119.43-99.55-183.41c-27.56-65.15-48.73-133.35-62.92-202.67c-14.55-71.13-21.94-144.36-21.94-217.63&#xA;&#x9;&#x9;&#x9;&#x9;c0-73.27,7.39-146.5,21.94-217.63c14.19-69.31,35.36-137.51,62.92-202.67c27.06-63.99,60.54-125.68,99.55-183.41&#xA;&#x9;&#x9;&#x9;&#x9;c38.63-57.18,82.99-110.95,131.86-159.81c48.86-48.88,102.63-93.23,159.81-131.86c57.73-39,119.43-72.49,183.41-99.55&#xA;&#x9;&#x9;&#x9;&#x9;c65.15-27.56,133.35-48.73,202.67-62.92c71.13-14.55,144.36-21.94,217.63-21.94c73.27,0,146.5,7.39,217.63,21.94&#xA;&#x9;&#x9;&#x9;&#x9;c69.31,14.19,137.51,35.36,202.67,62.92c63.99,27.06,125.68,60.54,183.41,99.55c57.18,38.63,110.95,82.99,159.81,131.86&#xA;&#x9;&#x9;&#x9;&#x9;c48.88,48.86,93.23,102.63,131.86,159.81c39,57.73,72.49,119.43,99.55,183.41c27.56,65.15,48.73,133.35,62.92,202.67&#xA;&#x9;&#x9;&#x9;&#x9;c14.55,71.13,21.94,144.36,21.94,217.63c0,73.27-7.39,146.5-21.94,217.63C3043.66,2286.94,3022.49,2355.14,2994.93,2420.3z"></path>
&#x9;&#x9;</g>
&#x9;&#x9;<g>
&#x9;&#x9;&#x9;<path style="fill:#FFFFFF;" d="M1140.54,1692.58c-2.11-3.76-5.33-6.29-9.85-7.72l-3.46-1.1c-4.27-1.36-8.24-1.08-12.16,0.86&#xA;&#x9;&#x9;&#x9;&#x9;c-3.88,1.93-6.38,4.81-7.65,8.8l-15.75,49.47l34.18,10.88l15.76-49.47C1142.96,1700.1,1142.6,1696.26,1140.54,1692.58z&#xA;&#x9;&#x9;&#x9;&#x9; M1232.34,1715.71c-2.1-3.76-5.33-6.29-9.85-7.72l-3.45-1.1c-4.52-1.44-8.6-1.24-12.5,0.61c-3.8,1.81-6.31,4.73-7.64,8.93&#xA;&#x9;&#x9;&#x9;&#x9;l-17.53,55.02l34.54,11l17.51-55.02C1234.75,1723.24,1234.4,1719.39,1232.34,1715.71z M1428.92,1403.63&#xA;&#x9;&#x9;&#x9;&#x9;c-1.17-12.88-7.91-25.29-20.05-36.88l-16.81-16.08c-12.13-11.59-24.84-17.77-37.75-18.35c-12.74-0.58-24.85,5.04-35.99,16.69&#xA;&#x9;&#x9;&#x9;&#x9;c-11.14,11.64-16.15,23.95-14.91,36.56c1.25,12.8,8.04,25.17,20.17,36.77l16.82,16.07c12.13,11.6,24.8,17.82,37.65,18.48&#xA;&#x9;&#x9;&#x9;&#x9;c12.84,0.66,24.54-4.74,35.84-16.56C1425.02,1428.68,1430.09,1416.33,1428.92,1403.63z M1232.34,1715.71&#xA;&#x9;&#x9;&#x9;&#x9;c-2.1-3.76-5.33-6.29-9.85-7.72l-3.45-1.1c-4.52-1.44-8.6-1.24-12.5,0.61c-3.8,1.81-6.31,4.73-7.64,8.93l-17.53,55.02l34.54,11&#xA;&#x9;&#x9;&#x9;&#x9;l17.51-55.02C1234.75,1723.24,1234.4,1719.39,1232.34,1715.71z M1140.54,1692.58c-2.11-3.76-5.33-6.29-9.85-7.72l-3.46-1.1&#xA;&#x9;&#x9;&#x9;&#x9;c-4.27-1.36-8.24-1.08-12.16,0.86c-3.88,1.93-6.38,4.81-7.65,8.8l-15.75,49.47l34.18,10.88l15.76-49.47&#xA;&#x9;&#x9;&#x9;&#x9;C1142.96,1700.1,1142.6,1696.26,1140.54,1692.58z M1428.92,1403.63c-1.17-12.88-7.91-25.29-20.05-36.88l-16.81-16.08&#xA;&#x9;&#x9;&#x9;&#x9;c-12.13-11.59-24.84-17.77-37.75-18.35c-12.74-0.58-24.85,5.04-35.99,16.69c-11.14,11.64-16.15,23.95-14.91,36.56&#xA;&#x9;&#x9;&#x9;&#x9;c1.25,12.8,8.04,25.17,20.17,36.77l16.82,16.07c12.13,11.6,24.8,17.82,37.65,18.48c12.84,0.66,24.54-4.74,35.84-16.56&#xA;&#x9;&#x9;&#x9;&#x9;C1425.02,1428.68,1430.09,1416.33,1428.92,1403.63z M1140.54,1692.58c-2.11-3.76-5.33-6.29-9.85-7.72l-3.46-1.1&#xA;&#x9;&#x9;&#x9;&#x9;c-4.27-1.36-8.24-1.08-12.16,0.86c-3.88,1.93-6.38,4.81-7.65,8.8l-15.75,49.47l34.18,10.88l15.76-49.47&#xA;&#x9;&#x9;&#x9;&#x9;C1142.96,1700.1,1142.6,1696.26,1140.54,1692.58z M1232.34,1715.71c-2.1-3.76-5.33-6.29-9.85-7.72l-3.45-1.1&#xA;&#x9;&#x9;&#x9;&#x9;c-4.52-1.44-8.6-1.24-12.5,0.61c-3.8,1.81-6.31,4.73-7.64,8.93l-17.53,55.02l34.54,11l17.51-55.02&#xA;&#x9;&#x9;&#x9;&#x9;C1234.75,1723.24,1234.4,1719.39,1232.34,1715.71z M1428.92,1403.63c-1.17-12.88-7.91-25.29-20.05-36.88l-16.81-16.08&#xA;&#x9;&#x9;&#x9;&#x9;c-12.13-11.59-24.84-17.77-37.75-18.35c-12.74-0.58-24.85,5.04-35.99,16.69c-11.14,11.64-16.15,23.95-14.91,36.56&#xA;&#x9;&#x9;&#x9;&#x9;c1.25,12.8,8.04,25.17,20.17,36.77l16.82,16.07c12.13,11.6,24.8,17.82,37.65,18.48c12.84,0.66,24.54-4.74,35.84-16.56&#xA;&#x9;&#x9;&#x9;&#x9;C1425.02,1428.68,1430.09,1416.33,1428.92,1403.63z M2092.02,1068.35c-3.51-3.97-7.85-6.07-13.28-6.42l-49.27-3.12l-2.5,39.44&#xA;&#x9;&#x9;&#x9;&#x9;l49.27,3.12c5.41,0.33,9.97-1.25,13.95-4.85c4-3.63,6.13-8.16,6.49-13.83c0.04-0.54,0.05-1.06,0.05-1.59&#xA;&#x9;&#x9;&#x9;&#x9;C2096.74,1076.14,2095.19,1071.97,2092.02,1068.35z M1232.34,1715.71c-2.1-3.76-5.33-6.29-9.85-7.72l-3.45-1.1&#xA;&#x9;&#x9;&#x9;&#x9;c-4.52-1.44-8.6-1.24-12.5,0.61c-3.8,1.81-6.31,4.73-7.64,8.93l-17.53,55.02l34.54,11l17.51-55.02&#xA;&#x9;&#x9;&#x9;&#x9;C1234.75,1723.24,1234.4,1719.39,1232.34,1715.71z M1140.54,1692.58c-2.11-3.76-5.33-6.29-9.85-7.72l-3.46-1.1&#xA;&#x9;&#x9;&#x9;&#x9;c-4.27-1.36-8.24-1.08-12.16,0.86c-3.88,1.93-6.38,4.81-7.65,8.8l-15.75,49.47l34.18,10.88l15.76-49.47&#xA;&#x9;&#x9;&#x9;&#x9;C1142.96,1700.1,1142.6,1696.26,1140.54,1692.58z M1428.92,1403.63c-1.17-12.88-7.91-25.29-20.05-36.88l-16.81-16.08&#xA;&#x9;&#x9;&#x9;&#x9;c-12.13-11.59-24.84-17.77-37.75-18.35c-12.74-0.58-24.85,5.04-35.99,16.69c-11.14,11.64-16.15,23.95-14.91,36.56&#xA;&#x9;&#x9;&#x9;&#x9;c1.25,12.8,8.04,25.17,20.17,36.77l16.82,16.07c12.13,11.6,24.8,17.82,37.65,18.48c12.84,0.66,24.54-4.74,35.84-16.56&#xA;&#x9;&#x9;&#x9;&#x9;C1425.02,1428.68,1430.09,1416.33,1428.92,1403.63z M2092.02,1068.35c-3.51-3.97-7.85-6.07-13.28-6.42l-49.27-3.12l-2.5,39.44&#xA;&#x9;&#x9;&#x9;&#x9;l49.27,3.12c5.41,0.33,9.97-1.25,13.95-4.85c4-3.63,6.13-8.16,6.49-13.83c0.04-0.54,0.05-1.06,0.05-1.59&#xA;&#x9;&#x9;&#x9;&#x9;C2096.74,1076.14,2095.19,1071.97,2092.02,1068.35z M1140.54,1692.58c-2.11-3.76-5.33-6.29-9.85-7.72l-3.46-1.1&#xA;&#x9;&#x9;&#x9;&#x9;c-4.27-1.36-8.24-1.08-12.16,0.86c-3.88,1.93-6.38,4.81-7.65,8.8l-15.75,49.47l34.18,10.88l15.76-49.47&#xA;&#x9;&#x9;&#x9;&#x9;C1142.96,1700.1,1142.6,1696.26,1140.54,1692.58z M1232.34,1715.71c-2.1-3.76-5.33-6.29-9.85-7.72l-3.45-1.1&#xA;&#x9;&#x9;&#x9;&#x9;c-4.52-1.44-8.6-1.24-12.5,0.61c-3.8,1.81-6.31,4.73-7.64,8.93l-17.53,55.02l34.54,11l17.51-55.02&#xA;&#x9;&#x9;&#x9;&#x9;C1234.75,1723.24,1234.4,1719.39,1232.34,1715.71z M1428.92,1403.63c-1.17-12.88-7.91-25.29-20.05-36.88l-16.81-16.08&#xA;&#x9;&#x9;&#x9;&#x9;c-12.13-11.59-24.84-17.77-37.75-18.35c-12.74-0.58-24.85,5.04-35.99,16.69c-11.14,11.64-16.15,23.95-14.91,36.56&#xA;&#x9;&#x9;&#x9;&#x9;c1.25,12.8,8.04,25.17,20.17,36.77l16.82,16.07c12.13,11.6,24.8,17.82,37.65,18.48c12.84,0.66,24.54-4.74,35.84-16.56&#xA;&#x9;&#x9;&#x9;&#x9;C1425.02,1428.68,1430.09,1416.33,1428.92,1403.63z M2092.02,1068.35c-3.51-3.97-7.85-6.07-13.28-6.42l-49.27-3.12l-2.5,39.44&#xA;&#x9;&#x9;&#x9;&#x9;l49.27,3.12c5.41,0.33,9.97-1.25,13.95-4.85c4-3.63,6.13-8.16,6.49-13.83c0.04-0.54,0.05-1.06,0.05-1.59&#xA;&#x9;&#x9;&#x9;&#x9;C2096.74,1076.14,2095.19,1071.97,2092.02,1068.35z M1232.34,1715.71c-2.1-3.76-5.33-6.29-9.85-7.72l-3.45-1.1&#xA;&#x9;&#x9;&#x9;&#x9;c-4.52-1.44-8.6-1.24-12.5,0.61c-3.8,1.81-6.31,4.73-7.64,8.93l-17.53,55.02l34.54,11l17.51-55.02&#xA;&#x9;&#x9;&#x9;&#x9;C1234.75,1723.24,1234.4,1719.39,1232.34,1715.71z M1140.54,1692.58c-2.11-3.76-5.33-6.29-9.85-7.72l-3.46-1.1&#xA;&#x9;&#x9;&#x9;&#x9;c-4.27-1.36-8.24-1.08-12.16,0.86c-3.88,1.93-6.38,4.81-7.65,8.8l-15.75,49.47l34.18,10.88l15.76-49.47&#xA;&#x9;&#x9;&#x9;&#x9;C1142.96,1700.1,1142.6,1696.26,1140.54,1692.58z M1428.92,1403.63c-1.17-12.88-7.91-25.29-20.05-36.88l-16.81-16.08&#xA;&#x9;&#x9;&#x9;&#x9;c-12.13-11.59-24.84-17.77-37.75-18.35c-12.74-0.58-24.85,5.04-35.99,16.69c-11.14,11.64-16.15,23.95-14.91,36.56&#xA;&#x9;&#x9;&#x9;&#x9;c1.25,12.8,8.04,25.17,20.17,36.77l16.82,16.07c12.13,11.6,24.8,17.82,37.65,18.48c12.84,0.66,24.54-4.74,35.84-16.56&#xA;&#x9;&#x9;&#x9;&#x9;C1425.02,1428.68,1430.09,1416.33,1428.92,1403.63z M2092.02,1068.35c-3.51-3.97-7.85-6.07-13.28-6.42l-49.27-3.12l-2.5,39.44&#xA;&#x9;&#x9;&#x9;&#x9;l49.27,3.12c5.41,0.33,9.97-1.25,13.95-4.85c4-3.63,6.13-8.16,6.49-13.83c0.04-0.54,0.05-1.06,0.05-1.59&#xA;&#x9;&#x9;&#x9;&#x9;C2096.74,1076.14,2095.19,1071.97,2092.02,1068.35z M1140.54,1692.58c-2.11-3.76-5.33-6.29-9.85-7.72l-3.46-1.1&#xA;&#x9;&#x9;&#x9;&#x9;c-4.27-1.36-8.24-1.08-12.16,0.86c-3.88,1.93-6.38,4.81-7.65,8.8l-15.75,49.47l34.18,10.88l15.76-49.47&#xA;&#x9;&#x9;&#x9;&#x9;C1142.96,1700.1,1142.6,1696.26,1140.54,1692.58z M1232.34,1715.71c-2.1-3.76-5.33-6.29-9.85-7.72l-3.45-1.1&#xA;&#x9;&#x9;&#x9;&#x9;c-4.52-1.44-8.6-1.24-12.5,0.61c-3.8,1.81-6.31,4.73-7.64,8.93l-17.53,55.02l34.54,11l17.51-55.02&#xA;&#x9;&#x9;&#x9;&#x9;C1234.75,1723.24,1234.4,1719.39,1232.34,1715.71z M1428.92,1403.63c-1.17-12.88-7.91-25.29-20.05-36.88l-16.81-16.08&#xA;&#x9;&#x9;&#x9;&#x9;c-12.13-11.59-24.84-17.77-37.75-18.35c-12.74-0.58-24.85,5.04-35.99,16.69c-11.14,11.64-16.15,23.95-14.91,36.56&#xA;&#x9;&#x9;&#x9;&#x9;c1.25,12.8,8.04,25.17,20.17,36.77l16.82,16.07c12.13,11.6,24.8,17.82,37.65,18.48c12.84,0.66,24.54-4.74,35.84-16.56&#xA;&#x9;&#x9;&#x9;&#x9;C1425.02,1428.68,1430.09,1416.33,1428.92,1403.63z M2092.02,1068.35c-3.51-3.97-7.85-6.07-13.28-6.42l-49.27-3.12l-2.5,39.44&#xA;&#x9;&#x9;&#x9;&#x9;l49.27,3.12c5.41,0.33,9.97-1.25,13.95-4.85c4-3.63,6.13-8.16,6.49-13.83c0.04-0.54,0.05-1.06,0.05-1.59&#xA;&#x9;&#x9;&#x9;&#x9;C2096.74,1076.14,2095.19,1071.97,2092.02,1068.35z M1232.34,1715.71c-2.1-3.76-5.33-6.29-9.85-7.72l-3.45-1.1&#xA;&#x9;&#x9;&#x9;&#x9;c-4.52-1.44-8.6-1.24-12.5,0.61c-3.8,1.81-6.31,4.73-7.64,8.93l-17.53,55.02l34.54,11l17.51-55.02&#xA;&#x9;&#x9;&#x9;&#x9;C1234.75,1723.24,1234.4,1719.39,1232.34,1715.71z M1140.54,1692.58c-2.11-3.76-5.33-6.29-9.85-7.72l-3.46-1.1&#xA;&#x9;&#x9;&#x9;&#x9;c-4.27-1.36-8.24-1.08-12.16,0.86c-3.88,1.93-6.38,4.81-7.65,8.8l-15.75,49.47l34.18,10.88l15.76-49.47&#xA;&#x9;&#x9;&#x9;&#x9;C1142.96,1700.1,1142.6,1696.26,1140.54,1692.58z M1428.92,1403.63c-1.17-12.88-7.91-25.29-20.05-36.88l-16.81-16.08&#xA;&#x9;&#x9;&#x9;&#x9;c-12.13-11.59-24.84-17.77-37.75-18.35c-12.74-0.58-24.85,5.04-35.99,16.69c-11.14,11.64-16.15,23.95-14.91,36.56&#xA;&#x9;&#x9;&#x9;&#x9;c1.25,12.8,8.04,25.17,20.17,36.77l16.82,16.07c12.13,11.6,24.8,17.82,37.65,18.48c12.84,0.66,24.54-4.74,35.84-16.56&#xA;&#x9;&#x9;&#x9;&#x9;C1425.02,1428.68,1430.09,1416.33,1428.92,1403.63z M2092.02,1068.35c-3.51-3.97-7.85-6.07-13.28-6.42l-49.27-3.12l-2.5,39.44&#xA;&#x9;&#x9;&#x9;&#x9;l49.27,3.12c5.41,0.33,9.97-1.25,13.95-4.85c4-3.63,6.13-8.16,6.49-13.83c0.04-0.54,0.05-1.06,0.05-1.59&#xA;&#x9;&#x9;&#x9;&#x9;C2096.74,1076.14,2095.19,1071.97,2092.02,1068.35z M1140.54,1692.58c-2.11-3.76-5.33-6.29-9.85-7.72l-3.46-1.1&#xA;&#x9;&#x9;&#x9;&#x9;c-4.27-1.36-8.24-1.08-12.16,0.86c-3.88,1.93-6.38,4.81-7.65,8.8l-15.75,49.47l34.18,10.88l15.76-49.47&#xA;&#x9;&#x9;&#x9;&#x9;C1142.96,1700.1,1142.6,1696.26,1140.54,1692.58z M1232.34,1715.71c-2.1-3.76-5.33-6.29-9.85-7.72l-3.45-1.1&#xA;&#x9;&#x9;&#x9;&#x9;c-4.52-1.44-8.6-1.24-12.5,0.61c-3.8,1.81-6.31,4.73-7.64,8.93l-17.53,55.02l34.54,11l17.51-55.02&#xA;&#x9;&#x9;&#x9;&#x9;C1234.75,1723.24,1234.4,1719.39,1232.34,1715.71z M1428.92,1403.63c-1.17-12.88-7.91-25.29-20.05-36.88l-16.81-16.08&#xA;&#x9;&#x9;&#x9;&#x9;c-12.13-11.59-24.84-17.77-37.75-18.35c-12.74-0.58-24.85,5.04-35.99,16.69c-11.14,11.64-16.15,23.95-14.91,36.56&#xA;&#x9;&#x9;&#x9;&#x9;c1.25,12.8,8.04,25.17,20.17,36.77l16.82,16.07c12.13,11.6,24.8,17.82,37.65,18.48c12.84,0.66,24.54-4.74,35.84-16.56&#xA;&#x9;&#x9;&#x9;&#x9;C1425.02,1428.68,1430.09,1416.33,1428.92,1403.63z M2092.02,1068.35c-3.51-3.97-7.85-6.07-13.28-6.42l-49.27-3.12l-2.5,39.44&#xA;&#x9;&#x9;&#x9;&#x9;l49.27,3.12c5.41,0.33,9.97-1.25,13.95-4.85c4-3.63,6.13-8.16,6.49-13.83c0.04-0.54,0.05-1.06,0.05-1.59&#xA;&#x9;&#x9;&#x9;&#x9;C2096.74,1076.14,2095.19,1071.97,2092.02,1068.35z M1232.34,1715.71c-2.1-3.76-5.33-6.29-9.85-7.72l-3.45-1.1&#xA;&#x9;&#x9;&#x9;&#x9;c-4.52-1.44-8.6-1.24-12.5,0.61c-3.8,1.81-6.31,4.73-7.64,8.93l-17.53,55.02l34.54,11l17.51-55.02&#xA;&#x9;&#x9;&#x9;&#x9;C1234.75,1723.24,1234.4,1719.39,1232.34,1715.71z M1140.54,1692.58c-2.11-3.76-5.33-6.29-9.85-7.72l-3.46-1.1&#xA;&#x9;&#x9;&#x9;&#x9;c-4.27-1.36-8.24-1.08-12.16,0.86c-3.88,1.93-6.38,4.81-7.65,8.8l-15.75,49.47l34.18,10.88l15.76-49.47&#xA;&#x9;&#x9;&#x9;&#x9;C1142.96,1700.1,1142.6,1696.26,1140.54,1692.58z M1428.92,1403.63c-1.17-12.88-7.91-25.29-20.05-36.88l-16.81-16.08&#xA;&#x9;&#x9;&#x9;&#x9;c-12.13-11.59-24.84-17.77-37.75-18.35c-12.74-0.58-24.85,5.04-35.99,16.69c-11.14,11.64-16.15,23.95-14.91,36.56&#xA;&#x9;&#x9;&#x9;&#x9;c1.25,12.8,8.04,25.17,20.17,36.77l16.82,16.07c12.13,11.6,24.8,17.82,37.65,18.48c12.84,0.66,24.54-4.74,35.84-16.56&#xA;&#x9;&#x9;&#x9;&#x9;C1425.02,1428.68,1430.09,1416.33,1428.92,1403.63z M2092.02,1068.35c-3.51-3.97-7.85-6.07-13.28-6.42l-49.27-3.12l-2.5,39.44&#xA;&#x9;&#x9;&#x9;&#x9;l49.27,3.12c5.41,0.33,9.97-1.25,13.95-4.85c4-3.63,6.13-8.16,6.49-13.83c0.04-0.54,0.05-1.06,0.05-1.59&#xA;&#x9;&#x9;&#x9;&#x9;C2096.74,1076.14,2095.19,1071.97,2092.02,1068.35z M1140.54,1692.58c-2.11-3.76-5.33-6.29-9.85-7.72l-3.46-1.1&#xA;&#x9;&#x9;&#x9;&#x9;c-4.27-1.36-8.24-1.08-12.16,0.86c-3.88,1.93-6.38,4.81-7.65,8.8l-15.75,49.47l34.18,10.88l15.76-49.47&#xA;&#x9;&#x9;&#x9;&#x9;C1142.96,1700.1,1142.6,1696.26,1140.54,1692.58z M1232.34,1715.71c-2.1-3.76-5.33-6.29-9.85-7.72l-3.45-1.1&#xA;&#x9;&#x9;&#x9;&#x9;c-4.52-1.44-8.6-1.24-12.5,0.61c-3.8,1.81-6.31,4.73-7.64,8.93l-17.53,55.02l34.54,11l17.51-55.02&#xA;&#x9;&#x9;&#x9;&#x9;C1234.75,1723.24,1234.4,1719.39,1232.34,1715.71z M1428.92,1403.63c-1.17-12.88-7.91-25.29-20.05-36.88l-16.81-16.08&#xA;&#x9;&#x9;&#x9;&#x9;c-12.13-11.59-24.84-17.77-37.75-18.35c-12.74-0.58-24.85,5.04-35.99,16.69c-11.14,11.64-16.15,23.95-14.91,36.56&#xA;&#x9;&#x9;&#x9;&#x9;c1.25,12.8,8.04,25.17,20.17,36.77l16.82,16.07c12.13,11.6,24.8,17.82,37.65,18.48c12.84,0.66,24.54-4.74,35.84-16.56&#xA;&#x9;&#x9;&#x9;&#x9;C1425.02,1428.68,1430.09,1416.33,1428.92,1403.63z M2092.02,1068.35c-3.51-3.97-7.85-6.07-13.28-6.42l-49.27-3.12l-2.5,39.44&#xA;&#x9;&#x9;&#x9;&#x9;l49.27,3.12c5.41,0.33,9.97-1.25,13.95-4.85c4-3.63,6.13-8.16,6.49-13.83c0.04-0.54,0.05-1.06,0.05-1.59&#xA;&#x9;&#x9;&#x9;&#x9;C2096.74,1076.14,2095.19,1071.97,2092.02,1068.35z M1232.34,1715.71c-2.1-3.76-5.33-6.29-9.85-7.72l-3.45-1.1&#xA;&#x9;&#x9;&#x9;&#x9;c-4.52-1.44-8.6-1.24-12.5,0.61c-3.8,1.81-6.31,4.73-7.64,8.93l-17.53,55.02l34.54,11l17.51-55.02&#xA;&#x9;&#x9;&#x9;&#x9;C1234.75,1723.24,1234.4,1719.39,1232.34,1715.71z M1140.54,1692.58c-2.11-3.76-5.33-6.29-9.85-7.72l-3.46-1.1&#xA;&#x9;&#x9;&#x9;&#x9;c-4.27-1.36-8.24-1.08-12.16,0.86c-3.88,1.93-6.38,4.81-7.65,8.8l-15.75,49.47l34.18,10.88l15.76-49.47&#xA;&#x9;&#x9;&#x9;&#x9;C1142.96,1700.1,1142.6,1696.26,1140.54,1692.58z M1428.92,1403.63c-1.17-12.88-7.91-25.29-20.05-36.88l-16.81-16.08&#xA;&#x9;&#x9;&#x9;&#x9;c-12.13-11.59-24.84-17.77-37.75-18.35c-12.74-0.58-24.85,5.04-35.99,16.69c-11.14,11.64-16.15,23.95-14.91,36.56&#xA;&#x9;&#x9;&#x9;&#x9;c1.25,12.8,8.04,25.17,20.17,36.77l16.82,16.07c12.13,11.6,24.8,17.82,37.65,18.48c12.84,0.66,24.54-4.74,35.84-16.56&#xA;&#x9;&#x9;&#x9;&#x9;C1425.02,1428.68,1430.09,1416.33,1428.92,1403.63z M2092.02,1068.35c-3.51-3.97-7.85-6.07-13.28-6.42l-49.27-3.12l-2.5,39.44&#xA;&#x9;&#x9;&#x9;&#x9;l49.27,3.12c5.41,0.33,9.97-1.25,13.95-4.85c4-3.63,6.13-8.16,6.49-13.83c0.04-0.54,0.05-1.06,0.05-1.59&#xA;&#x9;&#x9;&#x9;&#x9;C2096.74,1076.14,2095.19,1071.97,2092.02,1068.35z M1140.54,1692.58c-2.11-3.76-5.33-6.29-9.85-7.72l-3.46-1.1&#xA;&#x9;&#x9;&#x9;&#x9;c-4.27-1.36-8.24-1.08-12.16,0.86c-3.88,1.93-6.38,4.81-7.65,8.8l-15.75,49.47l34.18,10.88l15.76-49.47&#xA;&#x9;&#x9;&#x9;&#x9;C1142.96,1700.1,1142.6,1696.26,1140.54,1692.58z M1232.34,1715.71c-2.1-3.76-5.33-6.29-9.85-7.72l-3.45-1.1&#xA;&#x9;&#x9;&#x9;&#x9;c-4.52-1.44-8.6-1.24-12.5,0.61c-3.8,1.81-6.31,4.73-7.64,8.93l-17.53,55.02l34.54,11l17.51-55.02&#xA;&#x9;&#x9;&#x9;&#x9;C1234.75,1723.24,1234.4,1719.39,1232.34,1715.71z M1428.92,1403.63c-1.17-12.88-7.91-25.29-20.05-36.88l-16.81-16.08&#xA;&#x9;&#x9;&#x9;&#x9;c-12.13-11.59-24.84-17.77-37.75-18.35c-12.74-0.58-24.85,5.04-35.99,16.69c-11.14,11.64-16.15,23.95-14.91,36.56&#xA;&#x9;&#x9;&#x9;&#x9;c1.25,12.8,8.04,25.17,20.17,36.77l16.82,16.07c12.13,11.6,24.8,17.82,37.65,18.48c12.84,0.66,24.54-4.74,35.84-16.56&#xA;&#x9;&#x9;&#x9;&#x9;C1425.02,1428.68,1430.09,1416.33,1428.92,1403.63z M2092.02,1068.35c-3.51-3.97-7.85-6.07-13.28-6.42l-49.27-3.12l-2.5,39.44&#xA;&#x9;&#x9;&#x9;&#x9;l49.27,3.12c5.41,0.33,9.97-1.25,13.95-4.85c4-3.63,6.13-8.16,6.49-13.83c0.04-0.54,0.05-1.06,0.05-1.59&#xA;&#x9;&#x9;&#x9;&#x9;C2096.74,1076.14,2095.19,1071.97,2092.02,1068.35z M2165.37,2861.92l-4.35,43.12l24.15-4.62L2165.37,2861.92z M2165.37,2861.92&#xA;&#x9;&#x9;&#x9;&#x9;l-4.35,43.12l24.15-4.62L2165.37,2861.92z M1232.34,1715.71c-2.1-3.76-5.33-6.29-9.85-7.72l-3.45-1.1&#xA;&#x9;&#x9;&#x9;&#x9;c-4.52-1.44-8.6-1.24-12.5,0.61c-3.8,1.81-6.31,4.73-7.64,8.93l-17.53,55.02l34.54,11l17.51-55.02&#xA;&#x9;&#x9;&#x9;&#x9;C1234.75,1723.24,1234.4,1719.39,1232.34,1715.71z M1140.54,1692.58c-2.11-3.76-5.33-6.29-9.85-7.72l-3.46-1.1&#xA;&#x9;&#x9;&#x9;&#x9;c-4.27-1.36-8.24-1.08-12.16,0.86c-3.88,1.93-6.38,4.81-7.65,8.8l-15.75,49.47l34.18,10.88l15.76-49.47&#xA;&#x9;&#x9;&#x9;&#x9;C1142.96,1700.1,1142.6,1696.26,1140.54,1692.58z M1428.92,1403.63c-1.17-12.88-7.91-25.29-20.05-36.88l-16.81-16.08&#xA;&#x9;&#x9;&#x9;&#x9;c-12.13-11.59-24.84-17.77-37.75-18.35c-12.74-0.58-24.85,5.04-35.99,16.69c-11.14,11.64-16.15,23.95-14.91,36.56&#xA;&#x9;&#x9;&#x9;&#x9;c1.25,12.8,8.04,25.17,20.17,36.77l16.82,16.07c12.13,11.6,24.8,17.82,37.65,18.48c12.84,0.66,24.54-4.74,35.84-16.56&#xA;&#x9;&#x9;&#x9;&#x9;C1425.02,1428.68,1430.09,1416.33,1428.92,1403.63z M2092.02,1068.35c-3.51-3.97-7.85-6.07-13.28-6.42l-49.27-3.12l-2.5,39.44&#xA;&#x9;&#x9;&#x9;&#x9;l49.27,3.12c5.41,0.33,9.97-1.25,13.95-4.85c4-3.63,6.13-8.16,6.49-13.83c0.04-0.54,0.05-1.06,0.05-1.59&#xA;&#x9;&#x9;&#x9;&#x9;C2096.74,1076.14,2095.19,1071.97,2092.02,1068.35z M1140.54,1692.58c-2.11-3.76-5.33-6.29-9.85-7.72l-3.46-1.1&#xA;&#x9;&#x9;&#x9;&#x9;c-4.27-1.36-8.24-1.08-12.16,0.86c-3.88,1.93-6.38,4.81-7.65,8.8l-15.75,49.47l34.18,10.88l15.76-49.47&#xA;&#x9;&#x9;&#x9;&#x9;C1142.96,1700.1,1142.6,1696.26,1140.54,1692.58z M1232.34,1715.71c-2.1-3.76-5.33-6.29-9.85-7.72l-3.45-1.1&#xA;&#x9;&#x9;&#x9;&#x9;c-4.52-1.44-8.6-1.24-12.5,0.61c-3.8,1.81-6.31,4.73-7.64,8.93l-17.53,55.02l34.54,11l17.51-55.02&#xA;&#x9;&#x9;&#x9;&#x9;C1234.75,1723.24,1234.4,1719.39,1232.34,1715.71z M1428.92,1403.63c-1.17-12.88-7.91-25.29-20.05-36.88l-16.81-16.08&#xA;&#x9;&#x9;&#x9;&#x9;c-12.13-11.59-24.84-17.77-37.75-18.35c-12.74-0.58-24.85,5.04-35.99,16.69c-11.14,11.64-16.15,23.95-14.91,36.56&#xA;&#x9;&#x9;&#x9;&#x9;c1.25,12.8,8.04,25.17,20.17,36.77l16.82,16.07c12.13,11.6,24.8,17.82,37.65,18.48c12.84,0.66,24.54-4.74,35.84-16.56&#xA;&#x9;&#x9;&#x9;&#x9;C1425.02,1428.68,1430.09,1416.33,1428.92,1403.63z M1966.75,2865.38c-1.94-2.19-4.35-3.34-7.35-3.51l-29.21-1.74l-1.29,21.86&#xA;&#x9;&#x9;&#x9;&#x9;l29.21,1.73c2.98,0.17,5.49-0.7,7.67-2.7c2.22-2.02,3.39-4.54,3.57-7.71c0.01-0.28,0.03-0.56,0.03-0.84&#xA;&#x9;&#x9;&#x9;&#x9;C1969.38,2869.7,1968.52,2867.36,1966.75,2865.38z M2092.02,1068.35c-3.51-3.97-7.85-6.07-13.28-6.42l-49.27-3.12l-2.5,39.44&#xA;&#x9;&#x9;&#x9;&#x9;l49.27,3.12c5.41,0.33,9.97-1.25,13.95-4.85c4-3.63,6.13-8.16,6.49-13.83c0.04-0.54,0.05-1.06,0.05-1.59&#xA;&#x9;&#x9;&#x9;&#x9;C2096.74,1076.14,2095.19,1071.97,2092.02,1068.35z M2165.37,2861.92l-4.35,43.12l24.15-4.62L2165.37,2861.92z M2165.37,2861.92&#xA;&#x9;&#x9;&#x9;&#x9;l-4.35,43.12l24.15-4.62L2165.37,2861.92z M1966.75,2865.38c-1.94-2.19-4.35-3.34-7.35-3.51l-29.21-1.74l-1.29,21.86l29.21,1.73&#xA;&#x9;&#x9;&#x9;&#x9;c2.98,0.17,5.49-0.7,7.67-2.7c2.22-2.02,3.39-4.54,3.57-7.71c0.01-0.28,0.03-0.56,0.03-0.84&#xA;&#x9;&#x9;&#x9;&#x9;C1969.38,2869.7,1968.52,2867.36,1966.75,2865.38z M1232.34,1715.71c-2.1-3.76-5.33-6.29-9.85-7.72l-3.45-1.1&#xA;&#x9;&#x9;&#x9;&#x9;c-4.52-1.44-8.6-1.24-12.5,0.61c-3.8,1.81-6.31,4.73-7.64,8.93l-17.53,55.02l34.54,11l17.51-55.02&#xA;&#x9;&#x9;&#x9;&#x9;C1234.75,1723.24,1234.4,1719.39,1232.34,1715.71z M1140.54,1692.58c-2.11-3.76-5.33-6.29-9.85-7.72l-3.46-1.1&#xA;&#x9;&#x9;&#x9;&#x9;c-4.27-1.36-8.24-1.08-12.16,0.86c-3.88,1.93-6.38,4.81-7.65,8.8l-15.75,49.47l34.18,10.88l15.76-49.47&#xA;&#x9;&#x9;&#x9;&#x9;C1142.96,1700.1,1142.6,1696.26,1140.54,1692.58z M1428.92,1403.63c-1.17-12.88-7.91-25.29-20.05-36.88l-16.81-16.08&#xA;&#x9;&#x9;&#x9;&#x9;c-12.13-11.59-24.84-17.77-37.75-18.35c-12.74-0.58-24.85,5.04-35.99,16.69c-11.14,11.64-16.15,23.95-14.91,36.56&#xA;&#x9;&#x9;&#x9;&#x9;c1.25,12.8,8.04,25.17,20.17,36.77l16.82,16.07c12.13,11.6,24.8,17.82,37.65,18.48c12.84,0.66,24.54-4.74,35.84-16.56&#xA;&#x9;&#x9;&#x9;&#x9;C1425.02,1428.68,1430.09,1416.33,1428.92,1403.63z M2092.02,1068.35c-3.51-3.97-7.85-6.07-13.28-6.42l-49.27-3.12l-2.5,39.44&#xA;&#x9;&#x9;&#x9;&#x9;l49.27,3.12c5.41,0.33,9.97-1.25,13.95-4.85c4-3.63,6.13-8.16,6.49-13.83c0.04-0.54,0.05-1.06,0.05-1.59&#xA;&#x9;&#x9;&#x9;&#x9;C2096.74,1076.14,2095.19,1071.97,2092.02,1068.35z M1140.54,1692.58c-2.11-3.76-5.33-6.29-9.85-7.72l-3.46-1.1&#xA;&#x9;&#x9;&#x9;&#x9;c-4.27-1.36-8.24-1.08-12.16,0.86c-3.88,1.93-6.38,4.81-7.65,8.8l-15.75,49.47l34.18,10.88l15.76-49.47&#xA;&#x9;&#x9;&#x9;&#x9;C1142.96,1700.1,1142.6,1696.26,1140.54,1692.58z M1232.34,1715.71c-2.1-3.76-5.33-6.29-9.85-7.72l-3.45-1.1&#xA;&#x9;&#x9;&#x9;&#x9;c-4.52-1.44-8.6-1.24-12.5,0.61c-3.8,1.81-6.31,4.73-7.64,8.93l-17.53,55.02l34.54,11l17.51-55.02&#xA;&#x9;&#x9;&#x9;&#x9;C1234.75,1723.24,1234.4,1719.39,1232.34,1715.71z M1428.92,1403.63c-1.17-12.88-7.91-25.29-20.05-36.88l-16.81-16.08&#xA;&#x9;&#x9;&#x9;&#x9;c-12.13-11.59-24.84-17.77-37.75-18.35c-12.74-0.58-24.85,5.04-35.99,16.69c-11.14,11.64-16.15,23.95-14.91,36.56&#xA;&#x9;&#x9;&#x9;&#x9;c1.25,12.8,8.04,25.17,20.17,36.77l16.82,16.07c12.13,11.6,24.8,17.82,37.65,18.48c12.84,0.66,24.54-4.74,35.84-16.56&#xA;&#x9;&#x9;&#x9;&#x9;C1425.02,1428.68,1430.09,1416.33,1428.92,1403.63z M1966.75,2865.38c-1.94-2.19-4.35-3.34-7.35-3.51l-29.21-1.74l-1.29,21.86&#xA;&#x9;&#x9;&#x9;&#x9;l29.21,1.73c2.98,0.17,5.49-0.7,7.67-2.7c2.22-2.02,3.39-4.54,3.57-7.71c0.01-0.28,0.03-0.56,0.03-0.84&#xA;&#x9;&#x9;&#x9;&#x9;C1969.38,2869.7,1968.52,2867.36,1966.75,2865.38z M2092.02,1068.35c-3.51-3.97-7.85-6.07-13.28-6.42l-49.27-3.12l-2.5,39.44&#xA;&#x9;&#x9;&#x9;&#x9;l49.27,3.12c5.41,0.33,9.97-1.25,13.95-4.85c4-3.63,6.13-8.16,6.49-13.83c0.04-0.54,0.05-1.06,0.05-1.59&#xA;&#x9;&#x9;&#x9;&#x9;C2096.74,1076.14,2095.19,1071.97,2092.02,1068.35z M2165.37,2861.92l-4.35,43.12l24.15-4.62L2165.37,2861.92z M2165.37,2861.92&#xA;&#x9;&#x9;&#x9;&#x9;l-4.35,43.12l24.15-4.62L2165.37,2861.92z M1966.75,2865.38c-1.94-2.19-4.35-3.34-7.35-3.51l-29.21-1.74l-1.29,21.86l29.21,1.73&#xA;&#x9;&#x9;&#x9;&#x9;c2.98,0.17,5.49-0.7,7.67-2.7c2.22-2.02,3.39-4.54,3.57-7.71c0.01-0.28,0.03-0.56,0.03-0.84&#xA;&#x9;&#x9;&#x9;&#x9;C1969.38,2869.7,1968.52,2867.36,1966.75,2865.38z M1232.34,1715.71c-2.1-3.76-5.33-6.29-9.85-7.72l-3.45-1.1&#xA;&#x9;&#x9;&#x9;&#x9;c-4.52-1.44-8.6-1.24-12.5,0.61c-3.8,1.81-6.31,4.73-7.64,8.93l-17.53,55.02l34.54,11l17.51-55.02&#xA;&#x9;&#x9;&#x9;&#x9;C1234.75,1723.24,1234.4,1719.39,1232.34,1715.71z M1140.54,1692.58c-2.11-3.76-5.33-6.29-9.85-7.72l-3.46-1.1&#xA;&#x9;&#x9;&#x9;&#x9;c-4.27-1.36-8.24-1.08-12.16,0.86c-3.88,1.93-6.38,4.81-7.65,8.8l-15.75,49.47l34.18,10.88l15.76-49.47&#xA;&#x9;&#x9;&#x9;&#x9;C1142.96,1700.1,1142.6,1696.26,1140.54,1692.58z M1428.92,1403.63c-1.17-12.88-7.91-25.29-20.05-36.88l-16.81-16.08&#xA;&#x9;&#x9;&#x9;&#x9;c-12.13-11.59-24.84-17.77-37.75-18.35c-12.74-0.58-24.85,5.04-35.99,16.69c-11.14,11.64-16.15,23.95-14.91,36.56&#xA;&#x9;&#x9;&#x9;&#x9;c1.25,12.8,8.04,25.17,20.17,36.77l16.82,16.07c12.13,11.6,24.8,17.82,37.65,18.48c12.84,0.66,24.54-4.74,35.84-16.56&#xA;&#x9;&#x9;&#x9;&#x9;C1425.02,1428.68,1430.09,1416.33,1428.92,1403.63z M2092.02,1068.35c-3.51-3.97-7.85-6.07-13.28-6.42l-49.27-3.12l-2.5,39.44&#xA;&#x9;&#x9;&#x9;&#x9;l49.27,3.12c5.41,0.33,9.97-1.25,13.95-4.85c4-3.63,6.13-8.16,6.49-13.83c0.04-0.54,0.05-1.06,0.05-1.59&#xA;&#x9;&#x9;&#x9;&#x9;C2096.74,1076.14,2095.19,1071.97,2092.02,1068.35z M1140.54,1692.58c-2.11-3.76-5.33-6.29-9.85-7.72l-3.46-1.1&#xA;&#x9;&#x9;&#x9;&#x9;c-4.27-1.36-8.24-1.08-12.16,0.86c-3.88,1.93-6.38,4.81-7.65,8.8l-15.75,49.47l34.18,10.88l15.76-49.47&#xA;&#x9;&#x9;&#x9;&#x9;C1142.96,1700.1,1142.6,1696.26,1140.54,1692.58z M1232.34,1715.71c-2.1-3.76-5.33-6.29-9.85-7.72l-3.45-1.1&#xA;&#x9;&#x9;&#x9;&#x9;c-4.52-1.44-8.6-1.24-12.5,0.61c-3.8,1.81-6.31,4.73-7.64,8.93l-17.53,55.02l34.54,11l17.51-55.02&#xA;&#x9;&#x9;&#x9;&#x9;C1234.75,1723.24,1234.4,1719.39,1232.34,1715.71z M1428.92,1403.63c-1.17-12.88-7.91-25.29-20.05-36.88l-16.81-16.08&#xA;&#x9;&#x9;&#x9;&#x9;c-12.13-11.59-24.84-17.77-37.75-18.35c-12.74-0.58-24.85,5.04-35.99,16.69c-11.14,11.64-16.15,23.95-14.91,36.56&#xA;&#x9;&#x9;&#x9;&#x9;c1.25,12.8,8.04,25.17,20.17,36.77l16.82,16.07c12.13,11.6,24.8,17.82,37.65,18.48c12.84,0.66,24.54-4.74,35.84-16.56&#xA;&#x9;&#x9;&#x9;&#x9;C1425.02,1428.68,1430.09,1416.33,1428.92,1403.63z M1966.75,2865.38c-1.94-2.19-4.35-3.34-7.35-3.51l-29.21-1.74l-1.29,21.86&#xA;&#x9;&#x9;&#x9;&#x9;l29.21,1.73c2.98,0.17,5.49-0.7,7.67-2.7c2.22-2.02,3.39-4.54,3.57-7.71c0.01-0.28,0.03-0.56,0.03-0.84&#xA;&#x9;&#x9;&#x9;&#x9;C1969.38,2869.7,1968.52,2867.36,1966.75,2865.38z M2092.02,1068.35c-3.51-3.97-7.85-6.07-13.28-6.42l-49.27-3.12l-2.5,39.44&#xA;&#x9;&#x9;&#x9;&#x9;l49.27,3.12c5.41,0.33,9.97-1.25,13.95-4.85c4-3.63,6.13-8.16,6.49-13.83c0.04-0.54,0.05-1.06,0.05-1.59&#xA;&#x9;&#x9;&#x9;&#x9;C2096.74,1076.14,2095.19,1071.97,2092.02,1068.35z M2165.37,2861.92l-4.35,43.12l24.15-4.62L2165.37,2861.92z M2165.37,2861.92&#xA;&#x9;&#x9;&#x9;&#x9;l-4.35,43.12l24.15-4.62L2165.37,2861.92z M1966.75,2865.38c-1.94-2.19-4.35-3.34-7.35-3.51l-29.21-1.74l-1.29,21.86l29.21,1.73&#xA;&#x9;&#x9;&#x9;&#x9;c2.98,0.17,5.49-0.7,7.67-2.7c2.22-2.02,3.39-4.54,3.57-7.71c0.01-0.28,0.03-0.56,0.03-0.84&#xA;&#x9;&#x9;&#x9;&#x9;C1969.38,2869.7,1968.52,2867.36,1966.75,2865.38z M1232.34,1715.71c-2.1-3.76-5.33-6.29-9.85-7.72l-3.45-1.1&#xA;&#x9;&#x9;&#x9;&#x9;c-4.52-1.44-8.6-1.24-12.5,0.61c-3.8,1.81-6.31,4.73-7.64,8.93l-17.53,55.02l34.54,11l17.51-55.02&#xA;&#x9;&#x9;&#x9;&#x9;C1234.75,1723.24,1234.4,1719.39,1232.34,1715.71z M1130.69,1684.86l-3.46-1.1c-4.27-1.36-8.24-1.08-12.16,0.86&#xA;&#x9;&#x9;&#x9;&#x9;c-3.88,1.93-6.38,4.81-7.65,8.8l-15.75,49.47l34.18,10.88l15.76-49.47c1.34-4.2,0.98-8.04-1.08-11.72&#xA;&#x9;&#x9;&#x9;&#x9;C1138.42,1688.82,1135.21,1686.29,1130.69,1684.86z M1428.92,1403.63c-1.17-12.88-7.91-25.29-20.05-36.88l-16.81-16.08&#xA;&#x9;&#x9;&#x9;&#x9;c-12.13-11.59-24.84-17.77-37.75-18.35c-12.74-0.58-24.85,5.04-35.99,16.69c-11.14,11.64-16.15,23.95-14.91,36.56&#xA;&#x9;&#x9;&#x9;&#x9;c1.25,12.8,8.04,25.17,20.17,36.77l16.82,16.07c12.13,11.6,24.8,17.82,37.65,18.48c12.84,0.66,24.54-4.74,35.84-16.56&#xA;&#x9;&#x9;&#x9;&#x9;C1425.02,1428.68,1430.09,1416.33,1428.92,1403.63z M2092.02,1068.35c-3.51-3.97-7.85-6.07-13.28-6.42l-49.27-3.12l-2.5,39.44&#xA;&#x9;&#x9;&#x9;&#x9;l49.27,3.12c5.41,0.33,9.97-1.25,13.95-4.85c4-3.63,6.13-8.16,6.49-13.83c0.04-0.54,0.05-1.06,0.05-1.59&#xA;&#x9;&#x9;&#x9;&#x9;C2096.74,1076.14,2095.19,1071.97,2092.02,1068.35z M3038.44,1786.34c-13.94-68.04-34.71-134.96-61.77-198.92&#xA;&#x9;&#x9;&#x9;&#x9;c-26.54-62.76-59.41-123.35-97.73-180.04c-37.9-56.13-81.46-108.91-129.43-156.9c-47.99-47.97-100.77-91.53-156.9-129.43&#xA;&#x9;&#x9;&#x9;&#x9;c-56.69-38.31-117.27-71.19-180.04-97.73c-63.96-27.06-130.88-47.84-198.92-61.77c-69.83-14.29-141.71-21.53-213.66-21.53&#xA;&#x9;&#x9;&#x9;&#x9;c-71.95,0-143.82,7.24-213.66,21.53c-68.04,13.93-134.96,34.71-198.92,61.77c-62.76,26.54-123.35,59.41-180.04,97.73&#xA;&#x9;&#x9;&#x9;&#x9;c-56.13,37.9-108.91,81.46-156.9,129.43c-47.97,47.99-91.53,100.77-129.43,156.9c-38.31,56.69-71.19,117.27-97.73,180.04&#xA;&#x9;&#x9;&#x9;&#x9;c-27.06,63.96-47.84,130.88-61.77,198.92c-14.29,69.82-21.53,141.71-21.53,213.66c0,71.95,7.24,143.84,21.53,213.66&#xA;&#x9;&#x9;&#x9;&#x9;c13.93,68.04,34.71,134.96,61.77,198.92c26.54,62.76,59.41,123.35,97.73,180.04c37.9,56.13,81.46,108.91,129.43,156.9&#xA;&#x9;&#x9;&#x9;&#x9;c47.99,47.97,100.77,91.53,156.9,129.43c56.65,38.3,117.23,71.16,180.04,97.73c63.96,27.06,130.88,47.83,198.92,61.77&#xA;&#x9;&#x9;&#x9;&#x9;c69.82,14.29,141.71,21.53,213.66,21.53c71.95,0,143.84-7.24,213.66-21.53c68.04-13.94,134.96-34.71,198.92-61.77&#xA;&#x9;&#x9;&#x9;&#x9;c62.8-26.56,123.39-59.43,180.04-97.71c56.13-37.91,108.91-81.47,156.9-129.45c47.97-47.99,91.53-100.77,129.43-156.9&#xA;&#x9;&#x9;&#x9;&#x9;c38.31-56.69,71.19-117.27,97.73-180.04c27.06-63.96,47.83-130.88,61.77-198.92c14.29-69.82,21.53-141.71,21.53-213.66&#xA;&#x9;&#x9;&#x9;&#x9;C3059.96,1928.05,3052.72,1856.16,3038.44,1786.34z M2620.57,1199.42l53.01,53.06l-12.33,153.92l83.13-83.05l56.84,56.9&#xA;&#x9;&#x9;&#x9;&#x9;l-181.6,181.4l-52.98-53.05l11.11-152.71l-81.93,81.83l-56.84-56.89L2620.57,1199.42z M2369.18,1064.19l79.43,35.41&#xA;&#x9;&#x9;&#x9;&#x9;l-104.53,234.44l-79.43-35.41L2369.18,1064.19z M1946.73,989.74l156.01,9.89c18.36,1.17,34.11,5.79,46.78,13.75&#xA;&#x9;&#x9;&#x9;&#x9;c12.76,8,22.22,18.48,28.13,31.15c5.87,12.6,8.4,26.22,7.49,40.49c-0.51,7.92-2.07,15.43-4.68,22.51&#xA;&#x9;&#x9;&#x9;&#x9;c-2.6,7.07-6.27,13.71-10.95,19.85c-8.72,11.43-20.72,19.8-35.71,24.94l49.61,109.62l-97.54-6.18l-38.48-93.85l-24.34-1.54&#xA;&#x9;&#x9;&#x9;&#x9;l-5.77,91.03l-86.79-5.49L1946.73,989.74z M1599.5,1077.64l56.93,44.12l11.51-71.28l91.07-36.13l-32.66,143.62l135.07,91.91&#xA;&#x9;&#x9;&#x9;&#x9;l-98.11,38.92l-69.79-53.87l-13.85,87.07l-91.36,36.25l35.18-159.84l-121.78-81.95L1599.5,1077.64z M1270.16,1302.99&#xA;&#x9;&#x9;&#x9;&#x9;c15.12-15.83,30.7-28,46.59-36.42c15.89-8.43,32.13-13.1,48.58-14.01c33-1.81,65.45,12.32,96.46,41.97&#xA;&#x9;&#x9;&#x9;&#x9;c31.03,29.65,46.6,61.42,46.31,94.46c-0.31,32.94-15.8,65.7-46.06,97.37c-30.26,31.67-62.2,48.64-94.92,50.43&#xA;&#x9;&#x9;&#x9;&#x9;c-1.85,0.11-3.71,0.15-5.54,0.15c-30.92,0-61.49-14.23-90.94-42.36c-31.2-29.82-46.87-61.59-46.55-94.46&#xA;&#x9;&#x9;&#x9;&#x9;C1224.4,1367.34,1239.9,1334.66,1270.16,1302.99z M1006.65,1807.07l51.52-161.76c3.96-12.44,10.27-23.2,18.75-32h0.01&#xA;&#x9;&#x9;&#x9;&#x9;c8.54-8.86,18.66-14.95,30.06-18.11c11.45-3.19,23.18-2.92,34.83,0.8c27.85,8.86,42.91,26.44,44.86,52.33&#xA;&#x9;&#x9;&#x9;&#x9;c17.26-23.81,41.87-30.82,73.26-20.82c13.02,4.15,23.68,11.14,31.69,20.76c7.99,9.59,13.06,20.97,15.07,33.83&#xA;&#x9;&#x9;&#x9;&#x9;c2.01,12.76,0.89,25.89-3.3,39.03l-52.17,163.85L1006.65,1807.07z M1169.09,1968.61c0,29.2-23.67,52.86-52.85,52.86&#xA;&#x9;&#x9;&#x9;&#x9;c-29.2,0-52.86-23.67-52.86-52.86s23.67-52.86,52.86-52.86C1145.43,1915.75,1169.09,1939.42,1169.09,1968.61z M1079.5,2351.7&#xA;&#x9;&#x9;&#x9;&#x9;l-16.89-57.5l75.21-40.6l-85.21,6.51l-16.89-57.5l144.08-81.62l16.5,56.21l-68.9,36.34l77.57-6.86l15.32,52.2l-68.68,37.1&#xA;&#x9;&#x9;&#x9;&#x9;l77.34-7.61l15.88,54.09L1079.5,2351.7z M1250.25,2539.05l-38.13-60.96l-14.36,8.98l45.39,72.58l-37.08,23.19l-75.24-120.33&#xA;&#x9;&#x9;&#x9;&#x9;l136.7-85.49l74.42,118.99l-37.08,23.18l-44.56-71.25l-12.46,7.8l38.13,60.97L1250.25,2539.05z M1412.21,2637.93l-80.64,82.07&#xA;&#x9;&#x9;&#x9;&#x9;l-40.16-39.47l80.64-82.06l-36.23-35.59l32.37-32.96l112.45,110.5l-32.37,32.94L1412.21,2637.93z M1577.88,2758.02l-59.27,98.6&#xA;&#x9;&#x9;&#x9;&#x9;l-48.25-29.01l59.27-98.6l-43.52-26.17l23.79-39.59l135.12,81.21l-23.8,39.6L1577.88,2758.02z M1810.5,2846.85l-80.2-25.12&#xA;&#x9;&#x9;&#x9;&#x9;l-4.39,14.03l68.61,21.49l-12.58,40.23l-68.62-21.49l-5.06,16.17l81.7,25.58l-13.06,41.73l-135.44-42.42l48.19-153.87&#xA;&#x9;&#x9;&#x9;&#x9;l133.94,41.94L1810.5,2846.85z M1963.5,2981.63l-24.03-57.93l-13-0.77l-3.35,56.3l-56.2-3.34l9.55-160.95l97.74,5.81&#xA;&#x9;&#x9;&#x9;&#x9;c11.57,0.68,21.53,3.56,29.55,8.57c8.12,5.04,14.15,11.68,17.95,19.72c3.75,7.97,5.38,16.6,4.85,25.63&#xA;&#x9;&#x9;&#x9;&#x9;c-0.6,10.03-3.89,19.1-9.81,26.92h-0.01c-5.25,6.95-12.4,12.15-21.3,15.47l31.26,68.32L1963.5,2981.63z M2215.5,2958.8&#xA;&#x9;&#x9;&#x9;&#x9;l-10.5-20.17l-48.33,9.25l-2.3,22.63l-56.97,10.9l27.45-169.42l61.29-11.73l88.09,147.31L2215.5,2958.8z M2465.01,2850.52&#xA;&#x9;&#x9;&#x9;&#x9;c-7.65,16.35-23.11,30.1-45.95,40.85c-16.13,7.6-31.1,11.41-44.66,11.41c-5.63,0-11.04-0.66-16.2-1.98&#xA;&#x9;&#x9;&#x9;&#x9;c-17.77-4.56-31.55-16.98-40.94-36.94l-40.76-86.56l50.94-23.99l40.46,85.95c3.38,7.16,7.77,11.8,13.45,14.19&#xA;&#x9;&#x9;&#x9;&#x9;c5.54,2.34,11.72,1.83,18.9-1.54c7.16-3.38,11.51-7.87,13.28-13.73c1.81-6.01,1.08-12.33-2.23-19.35l-40.46-85.95l50.95-23.99&#xA;&#x9;&#x9;&#x9;&#x9;l40.74,86.56C2471.91,2815.42,2472.75,2833.94,2465.01,2850.52z M2402.97,2597.7c-38.51,26.02-79.71,48.37-122.42,66.43&#xA;&#x9;&#x9;&#x9;&#x9;c-43.49,18.41-88.99,32.53-135.27,42.01c-47.48,9.71-96.37,14.63-145.29,14.63s-97.81-4.92-145.29-14.63&#xA;&#x9;&#x9;&#x9;&#x9;c-46.27-9.47-91.77-23.6-135.27-42.01c-42.71-18.06-83.91-40.41-122.42-66.44c-38.18-25.78-74.06-55.4-106.7-88.02&#xA;&#x9;&#x9;&#x9;&#x9;c-32.62-32.64-62.24-68.52-88.02-106.7c-26.05-38.54-48.4-79.73-66.44-122.42c-18.4-43.49-32.53-88.99-42.01-135.27&#xA;&#x9;&#x9;&#x9;&#x9;c-9.71-47.48-14.63-96.37-14.63-145.29s4.92-97.81,14.63-145.29c9.47-46.27,23.6-91.77,42.01-135.27&#xA;&#x9;&#x9;&#x9;&#x9;c18.05-42.68,40.4-83.88,66.44-122.42c25.78-38.18,55.4-74.06,88.02-106.7c32.64-32.62,68.52-62.24,106.7-88.02&#xA;&#x9;&#x9;&#x9;&#x9;c38.54-26.05,79.73-48.4,122.42-66.44c43.49-18.4,88.99-32.53,135.27-42.01c47.48-9.71,96.37-14.63,145.29-14.63&#xA;&#x9;&#x9;&#x9;&#x9;s97.81,4.92,145.29,14.63c46.27,9.47,91.77,23.6,135.27,42.01c42.68,18.05,83.88,40.4,122.42,66.44&#xA;&#x9;&#x9;&#x9;&#x9;c38.18,25.78,74.06,55.4,106.7,88.02c32.62,32.64,62.24,68.52,88.02,106.7c26.05,38.54,48.4,79.73,66.44,122.42&#xA;&#x9;&#x9;&#x9;&#x9;c18.41,43.49,32.53,88.99,42.01,135.27c9.71,47.48,14.63,96.37,14.63,145.29s-4.92,97.81-14.63,145.29&#xA;&#x9;&#x9;&#x9;&#x9;c-9.47,46.27-23.6,91.77-42.01,135.27c-18.05,42.68-40.4,83.88-66.44,122.42c-25.78,38.18-55.4,74.06-88.02,106.7&#xA;&#x9;&#x9;&#x9;&#x9;C2477.03,2542.29,2441.15,2571.91,2402.97,2597.7z M2676.84,2714.75l-118.63-109.19l95.03-103.27l32.17,29.61l-56.9,61.85&#xA;&#x9;&#x9;&#x9;&#x9;l10.82,9.95l48.69-52.92l31.02,28.54l-48.7,52.92l12.48,11.47l57.97-62.99l32.17,29.61L2676.84,2714.75z M2819.44,2542.07&#xA;&#x9;&#x9;&#x9;&#x9;l-43.56-27.18l28.73-46.06l43.57,27.19L2819.44,2542.07z M2907.29,2377.77l-2.35-0.05l-168.69-3.76l21.38-56.28l100.65,7.22&#xA;&#x9;&#x9;&#x9;&#x9;l-79.99-61.62l20.58-54.18l130.51,110.51L2907.29,2377.77z M2835.3,1968.61c0-29.2,23.67-52.86,52.86-52.86&#xA;&#x9;&#x9;&#x9;&#x9;c29.2,0,52.86,23.67,52.86,52.86s-23.67,52.86-52.86,52.86C2858.97,2021.47,2835.3,1997.81,2835.3,1968.61z M2956.99,2222.99&#xA;&#x9;&#x9;&#x9;&#x9;l-50.32-10.22l10.8-53.19l50.32,10.23L2956.99,2222.99z M2969.07,1751.06c-0.93,20.97-6.58,39.49-16.8,55.07&#xA;&#x9;&#x9;&#x9;&#x9;c-10.31,15.71-25.66,27.02-45.63,33.59l-3.16,1.04l-26.09-79.13l3.15-1.04c8.88-2.94,14.62-9.09,17.53-18.83&#xA;&#x9;&#x9;&#x9;&#x9;c3-10.05,2.56-21.08-1.29-32.77c-5.61-16.98-14.37-28.44-26.05-34.06c-11.72-5.63-26.06-5.73-42.63-0.27l-22.09,7.28&#xA;&#x9;&#x9;&#x9;&#x9;c-16.57,5.46-28.04,14.06-34.1,25.57c-6.06,11.47-6.29,25.89-0.69,42.86c3.87,11.73,9.98,20.9,18.17,27.28&#xA;&#x9;&#x9;&#x9;&#x9;c6.84,5.33,13.62,7.3,20.62,5.97l-17.69-53.65l54.63-18.01l43.85,132.98l-138.85,45.78l-14.76-44.8l18.99-13.9&#xA;&#x9;&#x9;&#x9;&#x9;c-24-16.09-41.78-41.27-52.88-74.95c-13.21-40.05-12.58-74.2,1.86-101.49c14.42-27.24,42.71-47.96,84.09-61.61&#xA;&#x9;&#x9;&#x9;&#x9;c41-13.51,76.45-12.28,105.38,3.68c28.85,15.92,50.51,45.3,64.37,87.35c6.78,20.57,10.21,40.48,10.21,59.28&#xA;&#x9;&#x9;&#x9;&#x9;C2969.22,1746.57,2969.18,1748.82,2969.07,1751.06z M2161.02,2905.04l24.15-4.62l-19.8-38.5L2161.02,2905.04z M2090.2,1096.52&#xA;&#x9;&#x9;&#x9;&#x9;c4-3.63,6.13-8.16,6.49-13.83c0.04-0.54,0.05-1.06,0.05-1.59c0-4.96-1.55-9.13-4.72-12.74c-3.51-3.97-7.85-6.07-13.28-6.42&#xA;&#x9;&#x9;&#x9;&#x9;l-49.27-3.12l-2.5,39.44l49.27,3.12C2081.66,1101.71,2086.22,1100.13,2090.2,1096.52z M1959.4,2861.87l-29.21-1.74l-1.29,21.86&#xA;&#x9;&#x9;&#x9;&#x9;l29.21,1.73c2.98,0.17,5.49-0.7,7.67-2.7c2.22-2.02,3.39-4.54,3.57-7.71c0.01-0.28,0.03-0.56,0.03-0.84&#xA;&#x9;&#x9;&#x9;&#x9;c0-2.78-0.86-5.12-2.63-7.1C1964.81,2863.18,1962.41,2862.04,1959.4,2861.87z M1323.58,1422.34l16.82,16.07&#xA;&#x9;&#x9;&#x9;&#x9;c12.13,11.6,24.8,17.82,37.65,18.48c12.84,0.66,24.54-4.74,35.84-16.56c11.14-11.65,16.2-24,15.03-36.7&#xA;&#x9;&#x9;&#x9;&#x9;c-1.17-12.88-7.91-25.29-20.05-36.88l-16.81-16.08c-12.13-11.59-24.84-17.77-37.75-18.35c-12.74-0.58-24.85,5.04-35.99,16.69&#xA;&#x9;&#x9;&#x9;&#x9;c-11.14,11.64-16.15,23.95-14.91,36.56C1304.65,1398.36,1311.44,1410.74,1323.58,1422.34z M1222.49,1707.99l-3.45-1.1&#xA;&#x9;&#x9;&#x9;&#x9;c-4.52-1.44-8.6-1.24-12.5,0.61c-3.8,1.81-6.31,4.73-7.64,8.93l-17.53,55.02l34.54,11l17.51-55.02c1.34-4.2,0.98-8.04-1.08-11.72&#xA;&#x9;&#x9;&#x9;&#x9;C1230.24,1711.95,1227.01,1709.43,1222.49,1707.99z M1130.69,1684.86l-3.46-1.1c-4.27-1.36-8.24-1.08-12.16,0.86&#xA;&#x9;&#x9;&#x9;&#x9;c-3.88,1.93-6.38,4.81-7.65,8.8l-15.75,49.47l34.18,10.88l15.76-49.47c1.34-4.2,0.98-8.04-1.08-11.72&#xA;&#x9;&#x9;&#x9;&#x9;C1138.42,1688.82,1135.21,1686.29,1130.69,1684.86z M2092.02,1068.35c-3.51-3.97-7.85-6.07-13.28-6.42l-49.27-3.12l-2.5,39.44&#xA;&#x9;&#x9;&#x9;&#x9;l49.27,3.12c5.41,0.33,9.97-1.25,13.95-4.85c4-3.63,6.13-8.16,6.49-13.83c0.04-0.54,0.05-1.06,0.05-1.59&#xA;&#x9;&#x9;&#x9;&#x9;C2096.74,1076.14,2095.19,1071.97,2092.02,1068.35z M1428.92,1403.63c-1.17-12.88-7.91-25.29-20.05-36.88l-16.81-16.08&#xA;&#x9;&#x9;&#x9;&#x9;c-12.13-11.59-24.84-17.77-37.75-18.35c-12.74-0.58-24.85,5.04-35.99,16.69c-11.14,11.64-16.15,23.95-14.91,36.56&#xA;&#x9;&#x9;&#x9;&#x9;c1.25,12.8,8.04,25.17,20.17,36.77l16.82,16.07c12.13,11.6,24.8,17.82,37.65,18.48c12.84,0.66,24.54-4.74,35.84-16.56&#xA;&#x9;&#x9;&#x9;&#x9;C1425.02,1428.68,1430.09,1416.33,1428.92,1403.63z M1140.54,1692.58c-2.11-3.76-5.33-6.29-9.85-7.72l-3.46-1.1&#xA;&#x9;&#x9;&#x9;&#x9;c-4.27-1.36-8.24-1.08-12.16,0.86c-3.88,1.93-6.38,4.81-7.65,8.8l-15.75,49.47l34.18,10.88l15.76-49.47&#xA;&#x9;&#x9;&#x9;&#x9;C1142.96,1700.1,1142.6,1696.26,1140.54,1692.58z M1232.34,1715.71c-2.1-3.76-5.33-6.29-9.85-7.72l-3.45-1.1&#xA;&#x9;&#x9;&#x9;&#x9;c-4.52-1.44-8.6-1.24-12.5,0.61c-3.8,1.81-6.31,4.73-7.64,8.93l-17.53,55.02l34.54,11l17.51-55.02&#xA;&#x9;&#x9;&#x9;&#x9;C1234.75,1723.24,1234.4,1719.39,1232.34,1715.71z M1966.75,2865.38c-1.94-2.19-4.35-3.34-7.35-3.51l-29.21-1.74l-1.29,21.86&#xA;&#x9;&#x9;&#x9;&#x9;l29.21,1.73c2.98,0.17,5.49-0.7,7.67-2.7c2.22-2.02,3.39-4.54,3.57-7.71c0.01-0.28,0.03-0.56,0.03-0.84&#xA;&#x9;&#x9;&#x9;&#x9;C1969.38,2869.7,1968.52,2867.36,1966.75,2865.38z M2165.37,2861.92l-4.35,43.12l24.15-4.62L2165.37,2861.92z M2165.37,2861.92&#xA;&#x9;&#x9;&#x9;&#x9;l-4.35,43.12l24.15-4.62L2165.37,2861.92z M2092.02,1068.35c-3.51-3.97-7.85-6.07-13.28-6.42l-49.27-3.12l-2.5,39.44l49.27,3.12&#xA;&#x9;&#x9;&#x9;&#x9;c5.41,0.33,9.97-1.25,13.95-4.85c4-3.63,6.13-8.16,6.49-13.83c0.04-0.54,0.05-1.06,0.05-1.59&#xA;&#x9;&#x9;&#x9;&#x9;C2096.74,1076.14,2095.19,1071.97,2092.02,1068.35z M1966.75,2865.38c-1.94-2.19-4.35-3.34-7.35-3.51l-29.21-1.74l-1.29,21.86&#xA;&#x9;&#x9;&#x9;&#x9;l29.21,1.73c2.98,0.17,5.49-0.7,7.67-2.7c2.22-2.02,3.39-4.54,3.57-7.71c0.01-0.28,0.03-0.56,0.03-0.84&#xA;&#x9;&#x9;&#x9;&#x9;C1969.38,2869.7,1968.52,2867.36,1966.75,2865.38z M1428.92,1403.63c-1.17-12.88-7.91-25.29-20.05-36.88l-16.81-16.08&#xA;&#x9;&#x9;&#x9;&#x9;c-12.13-11.59-24.84-17.77-37.75-18.35c-12.74-0.58-24.85,5.04-35.99,16.69c-11.14,11.64-16.15,23.95-14.91,36.56&#xA;&#x9;&#x9;&#x9;&#x9;c1.25,12.8,8.04,25.17,20.17,36.77l16.82,16.07c12.13,11.6,24.8,17.82,37.65,18.48c12.84,0.66,24.54-4.74,35.84-16.56&#xA;&#x9;&#x9;&#x9;&#x9;C1425.02,1428.68,1430.09,1416.33,1428.92,1403.63z M1232.34,1715.71c-2.1-3.76-5.33-6.29-9.85-7.72l-3.45-1.1&#xA;&#x9;&#x9;&#x9;&#x9;c-4.52-1.44-8.6-1.24-12.5,0.61c-3.8,1.81-6.31,4.73-7.64,8.93l-17.53,55.02l34.54,11l17.51-55.02&#xA;&#x9;&#x9;&#x9;&#x9;C1234.75,1723.24,1234.4,1719.39,1232.34,1715.71z M1140.54,1692.58c-2.11-3.76-5.33-6.29-9.85-7.72l-3.46-1.1&#xA;&#x9;&#x9;&#x9;&#x9;c-4.27-1.36-8.24-1.08-12.16,0.86c-3.88,1.93-6.38,4.81-7.65,8.8l-15.75,49.47l34.18,10.88l15.76-49.47&#xA;&#x9;&#x9;&#x9;&#x9;C1142.96,1700.1,1142.6,1696.26,1140.54,1692.58z M2092.02,1068.35c-3.51-3.97-7.85-6.07-13.28-6.42l-49.27-3.12l-2.5,39.44&#xA;&#x9;&#x9;&#x9;&#x9;l49.27,3.12c5.41,0.33,9.97-1.25,13.95-4.85c4-3.63,6.13-8.16,6.49-13.83c0.04-0.54,0.05-1.06,0.05-1.59&#xA;&#x9;&#x9;&#x9;&#x9;C2096.74,1076.14,2095.19,1071.97,2092.02,1068.35z M1428.92,1403.63c-1.17-12.88-7.91-25.29-20.05-36.88l-16.81-16.08&#xA;&#x9;&#x9;&#x9;&#x9;c-12.13-11.59-24.84-17.77-37.75-18.35c-12.74-0.58-24.85,5.04-35.99,16.69c-11.14,11.64-16.15,23.95-14.91,36.56&#xA;&#x9;&#x9;&#x9;&#x9;c1.25,12.8,8.04,25.17,20.17,36.77l16.82,16.07c12.13,11.6,24.8,17.82,37.65,18.48c12.84,0.66,24.54-4.74,35.84-16.56&#xA;&#x9;&#x9;&#x9;&#x9;C1425.02,1428.68,1430.09,1416.33,1428.92,1403.63z M1140.54,1692.58c-2.11-3.76-5.33-6.29-9.85-7.72l-3.46-1.1&#xA;&#x9;&#x9;&#x9;&#x9;c-4.27-1.36-8.24-1.08-12.16,0.86c-3.88,1.93-6.38,4.81-7.65,8.8l-15.75,49.47l34.18,10.88l15.76-49.47&#xA;&#x9;&#x9;&#x9;&#x9;C1142.96,1700.1,1142.6,1696.26,1140.54,1692.58z M1232.34,1715.71c-2.1-3.76-5.33-6.29-9.85-7.72l-3.45-1.1&#xA;&#x9;&#x9;&#x9;&#x9;c-4.52-1.44-8.6-1.24-12.5,0.61c-3.8,1.81-6.31,4.73-7.64,8.93l-17.53,55.02l34.54,11l17.51-55.02&#xA;&#x9;&#x9;&#x9;&#x9;C1234.75,1723.24,1234.4,1719.39,1232.34,1715.71z M1966.75,2865.38c-1.94-2.19-4.35-3.34-7.35-3.51l-29.21-1.74l-1.29,21.86&#xA;&#x9;&#x9;&#x9;&#x9;l29.21,1.73c2.98,0.17,5.49-0.7,7.67-2.7c2.22-2.02,3.39-4.54,3.57-7.71c0.01-0.28,0.03-0.56,0.03-0.84&#xA;&#x9;&#x9;&#x9;&#x9;C1969.38,2869.7,1968.52,2867.36,1966.75,2865.38z M2165.37,2861.92l-4.35,43.12l24.15-4.62L2165.37,2861.92z M2165.37,2861.92&#xA;&#x9;&#x9;&#x9;&#x9;l-4.35,43.12l24.15-4.62L2165.37,2861.92z M2092.02,1068.35c-3.51-3.97-7.85-6.07-13.28-6.42l-49.27-3.12l-2.5,39.44l49.27,3.12&#xA;&#x9;&#x9;&#x9;&#x9;c5.41,0.33,9.97-1.25,13.95-4.85c4-3.63,6.13-8.16,6.49-13.83c0.04-0.54,0.05-1.06,0.05-1.59&#xA;&#x9;&#x9;&#x9;&#x9;C2096.74,1076.14,2095.19,1071.97,2092.02,1068.35z M1966.75,2865.38c-1.94-2.19-4.35-3.34-7.35-3.51l-29.21-1.74l-1.29,21.86&#xA;&#x9;&#x9;&#x9;&#x9;l29.21,1.73c2.98,0.17,5.49-0.7,7.67-2.7c2.22-2.02,3.39-4.54,3.57-7.71c0.01-0.28,0.03-0.56,0.03-0.84&#xA;&#x9;&#x9;&#x9;&#x9;C1969.38,2869.7,1968.52,2867.36,1966.75,2865.38z M1428.92,1403.63c-1.17-12.88-7.91-25.29-20.05-36.88l-16.81-16.08&#xA;&#x9;&#x9;&#x9;&#x9;c-12.13-11.59-24.84-17.77-37.75-18.35c-12.74-0.58-24.85,5.04-35.99,16.69c-11.14,11.64-16.15,23.95-14.91,36.56&#xA;&#x9;&#x9;&#x9;&#x9;c1.25,12.8,8.04,25.17,20.17,36.77l16.82,16.07c12.13,11.6,24.8,17.82,37.65,18.48c12.84,0.66,24.54-4.74,35.84-16.56&#xA;&#x9;&#x9;&#x9;&#x9;C1425.02,1428.68,1430.09,1416.33,1428.92,1403.63z M1232.34,1715.71c-2.1-3.76-5.33-6.29-9.85-7.72l-3.45-1.1&#xA;&#x9;&#x9;&#x9;&#x9;c-4.52-1.44-8.6-1.24-12.5,0.61c-3.8,1.81-6.31,4.73-7.64,8.93l-17.53,55.02l34.54,11l17.51-55.02&#xA;&#x9;&#x9;&#x9;&#x9;C1234.75,1723.24,1234.4,1719.39,1232.34,1715.71z M1140.54,1692.58c-2.11-3.76-5.33-6.29-9.85-7.72l-3.46-1.1&#xA;&#x9;&#x9;&#x9;&#x9;c-4.27-1.36-8.24-1.08-12.16,0.86c-3.88,1.93-6.38,4.81-7.65,8.8l-15.75,49.47l34.18,10.88l15.76-49.47&#xA;&#x9;&#x9;&#x9;&#x9;C1142.96,1700.1,1142.6,1696.26,1140.54,1692.58z M2092.02,1068.35c-3.51-3.97-7.85-6.07-13.28-6.42l-49.27-3.12l-2.5,39.44&#xA;&#x9;&#x9;&#x9;&#x9;l49.27,3.12c5.41,0.33,9.97-1.25,13.95-4.85c4-3.63,6.13-8.16,6.49-13.83c0.04-0.54,0.05-1.06,0.05-1.59&#xA;&#x9;&#x9;&#x9;&#x9;C2096.74,1076.14,2095.19,1071.97,2092.02,1068.35z M1428.92,1403.63c-1.17-12.88-7.91-25.29-20.05-36.88l-16.81-16.08&#xA;&#x9;&#x9;&#x9;&#x9;c-12.13-11.59-24.84-17.77-37.75-18.35c-12.74-0.58-24.85,5.04-35.99,16.69c-11.14,11.64-16.15,23.95-14.91,36.56&#xA;&#x9;&#x9;&#x9;&#x9;c1.25,12.8,8.04,25.17,20.17,36.77l16.82,16.07c12.13,11.6,24.8,17.82,37.65,18.48c12.84,0.66,24.54-4.74,35.84-16.56&#xA;&#x9;&#x9;&#x9;&#x9;C1425.02,1428.68,1430.09,1416.33,1428.92,1403.63z M1140.54,1692.58c-2.11-3.76-5.33-6.29-9.85-7.72l-3.46-1.1&#xA;&#x9;&#x9;&#x9;&#x9;c-4.27-1.36-8.24-1.08-12.16,0.86c-3.88,1.93-6.38,4.81-7.65,8.8l-15.75,49.47l34.18,10.88l15.76-49.47&#xA;&#x9;&#x9;&#x9;&#x9;C1142.96,1700.1,1142.6,1696.26,1140.54,1692.58z M1232.34,1715.71c-2.1-3.76-5.33-6.29-9.85-7.72l-3.45-1.1&#xA;&#x9;&#x9;&#x9;&#x9;c-4.52-1.44-8.6-1.24-12.5,0.61c-3.8,1.81-6.31,4.73-7.64,8.93l-17.53,55.02l34.54,11l17.51-55.02&#xA;&#x9;&#x9;&#x9;&#x9;C1234.75,1723.24,1234.4,1719.39,1232.34,1715.71z M1966.75,2865.38c-1.94-2.19-4.35-3.34-7.35-3.51l-29.21-1.74l-1.29,21.86&#xA;&#x9;&#x9;&#x9;&#x9;l29.21,1.73c2.98,0.17,5.49-0.7,7.67-2.7c2.22-2.02,3.39-4.54,3.57-7.71c0.01-0.28,0.03-0.56,0.03-0.84&#xA;&#x9;&#x9;&#x9;&#x9;C1969.38,2869.7,1968.52,2867.36,1966.75,2865.38z M2165.37,2861.92l-4.35,43.12l24.15-4.62L2165.37,2861.92z M2165.37,2861.92&#xA;&#x9;&#x9;&#x9;&#x9;l-4.35,43.12l24.15-4.62L2165.37,2861.92z M2092.02,1068.35c-3.51-3.97-7.85-6.07-13.28-6.42l-49.27-3.12l-2.5,39.44l49.27,3.12&#xA;&#x9;&#x9;&#x9;&#x9;c5.41,0.33,9.97-1.25,13.95-4.85c4-3.63,6.13-8.16,6.49-13.83c0.04-0.54,0.05-1.06,0.05-1.59&#xA;&#x9;&#x9;&#x9;&#x9;C2096.74,1076.14,2095.19,1071.97,2092.02,1068.35z M1966.75,2865.38c-1.94-2.19-4.35-3.34-7.35-3.51l-29.21-1.74l-1.29,21.86&#xA;&#x9;&#x9;&#x9;&#x9;l29.21,1.73c2.98,0.17,5.49-0.7,7.67-2.7c2.22-2.02,3.39-4.54,3.57-7.71c0.01-0.28,0.03-0.56,0.03-0.84&#xA;&#x9;&#x9;&#x9;&#x9;C1969.38,2869.7,1968.52,2867.36,1966.75,2865.38z M1428.92,1403.63c-1.17-12.88-7.91-25.29-20.05-36.88l-16.81-16.08&#xA;&#x9;&#x9;&#x9;&#x9;c-12.13-11.59-24.84-17.77-37.75-18.35c-12.74-0.58-24.85,5.04-35.99,16.69c-11.14,11.64-16.15,23.95-14.91,36.56&#xA;&#x9;&#x9;&#x9;&#x9;c1.25,12.8,8.04,25.17,20.17,36.77l16.82,16.07c12.13,11.6,24.8,17.82,37.65,18.48c12.84,0.66,24.54-4.74,35.84-16.56&#xA;&#x9;&#x9;&#x9;&#x9;C1425.02,1428.68,1430.09,1416.33,1428.92,1403.63z M1232.34,1715.71c-2.1-3.76-5.33-6.29-9.85-7.72l-3.45-1.1&#xA;&#x9;&#x9;&#x9;&#x9;c-4.52-1.44-8.6-1.24-12.5,0.61c-3.8,1.81-6.31,4.73-7.64,8.93l-17.53,55.02l34.54,11l17.51-55.02&#xA;&#x9;&#x9;&#x9;&#x9;C1234.75,1723.24,1234.4,1719.39,1232.34,1715.71z M1140.54,1692.58c-2.11-3.76-5.33-6.29-9.85-7.72l-3.46-1.1&#xA;&#x9;&#x9;&#x9;&#x9;c-4.27-1.36-8.24-1.08-12.16,0.86c-3.88,1.93-6.38,4.81-7.65,8.8l-15.75,49.47l34.18,10.88l15.76-49.47&#xA;&#x9;&#x9;&#x9;&#x9;C1142.96,1700.1,1142.6,1696.26,1140.54,1692.58z M2092.02,1068.35c-3.51-3.97-7.85-6.07-13.28-6.42l-49.27-3.12l-2.5,39.44&#xA;&#x9;&#x9;&#x9;&#x9;l49.27,3.12c5.41,0.33,9.97-1.25,13.95-4.85c4-3.63,6.13-8.16,6.49-13.83c0.04-0.54,0.05-1.06,0.05-1.59&#xA;&#x9;&#x9;&#x9;&#x9;C2096.74,1076.14,2095.19,1071.97,2092.02,1068.35z M1428.92,1403.63c-1.17-12.88-7.91-25.29-20.05-36.88l-16.81-16.08&#xA;&#x9;&#x9;&#x9;&#x9;c-12.13-11.59-24.84-17.77-37.75-18.35c-12.74-0.58-24.85,5.04-35.99,16.69c-11.14,11.64-16.15,23.95-14.91,36.56&#xA;&#x9;&#x9;&#x9;&#x9;c1.25,12.8,8.04,25.17,20.17,36.77l16.82,16.07c12.13,11.6,24.8,17.82,37.65,18.48c12.84,0.66,24.54-4.74,35.84-16.56&#xA;&#x9;&#x9;&#x9;&#x9;C1425.02,1428.68,1430.09,1416.33,1428.92,1403.63z M1140.54,1692.58c-2.11-3.76-5.33-6.29-9.85-7.72l-3.46-1.1&#xA;&#x9;&#x9;&#x9;&#x9;c-4.27-1.36-8.24-1.08-12.16,0.86c-3.88,1.93-6.38,4.81-7.65,8.8l-15.75,49.47l34.18,10.88l15.76-49.47&#xA;&#x9;&#x9;&#x9;&#x9;C1142.96,1700.1,1142.6,1696.26,1140.54,1692.58z M1232.34,1715.71c-2.1-3.76-5.33-6.29-9.85-7.72l-3.45-1.1&#xA;&#x9;&#x9;&#x9;&#x9;c-4.52-1.44-8.6-1.24-12.5,0.61c-3.8,1.81-6.31,4.73-7.64,8.93l-17.53,55.02l34.54,11l17.51-55.02&#xA;&#x9;&#x9;&#x9;&#x9;C1234.75,1723.24,1234.4,1719.39,1232.34,1715.71z M2092.02,1068.35c-3.51-3.97-7.85-6.07-13.28-6.42l-49.27-3.12l-2.5,39.44&#xA;&#x9;&#x9;&#x9;&#x9;l49.27,3.12c5.41,0.33,9.97-1.25,13.95-4.85c4-3.63,6.13-8.16,6.49-13.83c0.04-0.54,0.05-1.06,0.05-1.59&#xA;&#x9;&#x9;&#x9;&#x9;C2096.74,1076.14,2095.19,1071.97,2092.02,1068.35z M1428.92,1403.63c-1.17-12.88-7.91-25.29-20.05-36.88l-16.81-16.08&#xA;&#x9;&#x9;&#x9;&#x9;c-12.13-11.59-24.84-17.77-37.75-18.35c-12.74-0.58-24.85,5.04-35.99,16.69c-11.14,11.64-16.15,23.95-14.91,36.56&#xA;&#x9;&#x9;&#x9;&#x9;c1.25,12.8,8.04,25.17,20.17,36.77l16.82,16.07c12.13,11.6,24.8,17.82,37.65,18.48c12.84,0.66,24.54-4.74,35.84-16.56&#xA;&#x9;&#x9;&#x9;&#x9;C1425.02,1428.68,1430.09,1416.33,1428.92,1403.63z M1232.34,1715.71c-2.1-3.76-5.33-6.29-9.85-7.72l-3.45-1.1&#xA;&#x9;&#x9;&#x9;&#x9;c-4.52-1.44-8.6-1.24-12.5,0.61c-3.8,1.81-6.31,4.73-7.64,8.93l-17.53,55.02l34.54,11l17.51-55.02&#xA;&#x9;&#x9;&#x9;&#x9;C1234.75,1723.24,1234.4,1719.39,1232.34,1715.71z M1140.54,1692.58c-2.11-3.76-5.33-6.29-9.85-7.72l-3.46-1.1&#xA;&#x9;&#x9;&#x9;&#x9;c-4.27-1.36-8.24-1.08-12.16,0.86c-3.88,1.93-6.38,4.81-7.65,8.8l-15.75,49.47l34.18,10.88l15.76-49.47&#xA;&#x9;&#x9;&#x9;&#x9;C1142.96,1700.1,1142.6,1696.26,1140.54,1692.58z M2092.02,1068.35c-3.51-3.97-7.85-6.07-13.28-6.42l-49.27-3.12l-2.5,39.44&#xA;&#x9;&#x9;&#x9;&#x9;l49.27,3.12c5.41,0.33,9.97-1.25,13.95-4.85c4-3.63,6.13-8.16,6.49-13.83c0.04-0.54,0.05-1.06,0.05-1.59&#xA;&#x9;&#x9;&#x9;&#x9;C2096.74,1076.14,2095.19,1071.97,2092.02,1068.35z M1428.92,1403.63c-1.17-12.88-7.91-25.29-20.05-36.88l-16.81-16.08&#xA;&#x9;&#x9;&#x9;&#x9;c-12.13-11.59-24.84-17.77-37.75-18.35c-12.74-0.58-24.85,5.04-35.99,16.69c-11.14,11.64-16.15,23.95-14.91,36.56&#xA;&#x9;&#x9;&#x9;&#x9;c1.25,12.8,8.04,25.17,20.17,36.77l16.82,16.07c12.13,11.6,24.8,17.82,37.65,18.48c12.84,0.66,24.54-4.74,35.84-16.56&#xA;&#x9;&#x9;&#x9;&#x9;C1425.02,1428.68,1430.09,1416.33,1428.92,1403.63z M1140.54,1692.58c-2.11-3.76-5.33-6.29-9.85-7.72l-3.46-1.1&#xA;&#x9;&#x9;&#x9;&#x9;c-4.27-1.36-8.24-1.08-12.16,0.86c-3.88,1.93-6.38,4.81-7.65,8.8l-15.75,49.47l34.18,10.88l15.76-49.47&#xA;&#x9;&#x9;&#x9;&#x9;C1142.96,1700.1,1142.6,1696.26,1140.54,1692.58z M1232.34,1715.71c-2.1-3.76-5.33-6.29-9.85-7.72l-3.45-1.1&#xA;&#x9;&#x9;&#x9;&#x9;c-4.52-1.44-8.6-1.24-12.5,0.61c-3.8,1.81-6.31,4.73-7.64,8.93l-17.53,55.02l34.54,11l17.51-55.02&#xA;&#x9;&#x9;&#x9;&#x9;C1234.75,1723.24,1234.4,1719.39,1232.34,1715.71z M2092.02,1068.35c-3.51-3.97-7.85-6.07-13.28-6.42l-49.27-3.12l-2.5,39.44&#xA;&#x9;&#x9;&#x9;&#x9;l49.27,3.12c5.41,0.33,9.97-1.25,13.95-4.85c4-3.63,6.13-8.16,6.49-13.83c0.04-0.54,0.05-1.06,0.05-1.59&#xA;&#x9;&#x9;&#x9;&#x9;C2096.74,1076.14,2095.19,1071.97,2092.02,1068.35z M1428.92,1403.63c-1.17-12.88-7.91-25.29-20.05-36.88l-16.81-16.08&#xA;&#x9;&#x9;&#x9;&#x9;c-12.13-11.59-24.84-17.77-37.75-18.35c-12.74-0.58-24.85,5.04-35.99,16.69c-11.14,11.64-16.15,23.95-14.91,36.56&#xA;&#x9;&#x9;&#x9;&#x9;c1.25,12.8,8.04,25.17,20.17,36.77l16.82,16.07c12.13,11.6,24.8,17.82,37.65,18.48c12.84,0.66,24.54-4.74,35.84-16.56&#xA;&#x9;&#x9;&#x9;&#x9;C1425.02,1428.68,1430.09,1416.33,1428.92,1403.63z M1232.34,1715.71c-2.1-3.76-5.33-6.29-9.85-7.72l-3.45-1.1&#xA;&#x9;&#x9;&#x9;&#x9;c-4.52-1.44-8.6-1.24-12.5,0.61c-3.8,1.81-6.31,4.73-7.64,8.93l-17.53,55.02l34.54,11l17.51-55.02&#xA;&#x9;&#x9;&#x9;&#x9;C1234.75,1723.24,1234.4,1719.39,1232.34,1715.71z M1140.54,1692.58c-2.11-3.76-5.33-6.29-9.85-7.72l-3.46-1.1&#xA;&#x9;&#x9;&#x9;&#x9;c-4.27-1.36-8.24-1.08-12.16,0.86c-3.88,1.93-6.38,4.81-7.65,8.8l-15.75,49.47l34.18,10.88l15.76-49.47&#xA;&#x9;&#x9;&#x9;&#x9;C1142.96,1700.1,1142.6,1696.26,1140.54,1692.58z M2092.02,1068.35c-3.51-3.97-7.85-6.07-13.28-6.42l-49.27-3.12l-2.5,39.44&#xA;&#x9;&#x9;&#x9;&#x9;l49.27,3.12c5.41,0.33,9.97-1.25,13.95-4.85c4-3.63,6.13-8.16,6.49-13.83c0.04-0.54,0.05-1.06,0.05-1.59&#xA;&#x9;&#x9;&#x9;&#x9;C2096.74,1076.14,2095.19,1071.97,2092.02,1068.35z M1428.92,1403.63c-1.17-12.88-7.91-25.29-20.05-36.88l-16.81-16.08&#xA;&#x9;&#x9;&#x9;&#x9;c-12.13-11.59-24.84-17.77-37.75-18.35c-12.74-0.58-24.85,5.04-35.99,16.69c-11.14,11.64-16.15,23.95-14.91,36.56&#xA;&#x9;&#x9;&#x9;&#x9;c1.25,12.8,8.04,25.17,20.17,36.77l16.82,16.07c12.13,11.6,24.8,17.82,37.65,18.48c12.84,0.66,24.54-4.74,35.84-16.56&#xA;&#x9;&#x9;&#x9;&#x9;C1425.02,1428.68,1430.09,1416.33,1428.92,1403.63z M1140.54,1692.58c-2.11-3.76-5.33-6.29-9.85-7.72l-3.46-1.1&#xA;&#x9;&#x9;&#x9;&#x9;c-4.27-1.36-8.24-1.08-12.16,0.86c-3.88,1.93-6.38,4.81-7.65,8.8l-15.75,49.47l34.18,10.88l15.76-49.47&#xA;&#x9;&#x9;&#x9;&#x9;C1142.96,1700.1,1142.6,1696.26,1140.54,1692.58z M1232.34,1715.71c-2.1-3.76-5.33-6.29-9.85-7.72l-3.45-1.1&#xA;&#x9;&#x9;&#x9;&#x9;c-4.52-1.44-8.6-1.24-12.5,0.61c-3.8,1.81-6.31,4.73-7.64,8.93l-17.53,55.02l34.54,11l17.51-55.02&#xA;&#x9;&#x9;&#x9;&#x9;C1234.75,1723.24,1234.4,1719.39,1232.34,1715.71z M2092.02,1068.35c-3.51-3.97-7.85-6.07-13.28-6.42l-49.27-3.12l-2.5,39.44&#xA;&#x9;&#x9;&#x9;&#x9;l49.27,3.12c5.41,0.33,9.97-1.25,13.95-4.85c4-3.63,6.13-8.16,6.49-13.83c0.04-0.54,0.05-1.06,0.05-1.59&#xA;&#x9;&#x9;&#x9;&#x9;C2096.74,1076.14,2095.19,1071.97,2092.02,1068.35z M1428.92,1403.63c-1.17-12.88-7.91-25.29-20.05-36.88l-16.81-16.08&#xA;&#x9;&#x9;&#x9;&#x9;c-12.13-11.59-24.84-17.77-37.75-18.35c-12.74-0.58-24.85,5.04-35.99,16.69c-11.14,11.64-16.15,23.95-14.91,36.56&#xA;&#x9;&#x9;&#x9;&#x9;c1.25,12.8,8.04,25.17,20.17,36.77l16.82,16.07c12.13,11.6,24.8,17.82,37.65,18.48c12.84,0.66,24.54-4.74,35.84-16.56&#xA;&#x9;&#x9;&#x9;&#x9;C1425.02,1428.68,1430.09,1416.33,1428.92,1403.63z M1232.34,1715.71c-2.1-3.76-5.33-6.29-9.85-7.72l-3.45-1.1&#xA;&#x9;&#x9;&#x9;&#x9;c-4.52-1.44-8.6-1.24-12.5,0.61c-3.8,1.81-6.31,4.73-7.64,8.93l-17.53,55.02l34.54,11l17.51-55.02&#xA;&#x9;&#x9;&#x9;&#x9;C1234.75,1723.24,1234.4,1719.39,1232.34,1715.71z M1140.54,1692.58c-2.11-3.76-5.33-6.29-9.85-7.72l-3.46-1.1&#xA;&#x9;&#x9;&#x9;&#x9;c-4.27-1.36-8.24-1.08-12.16,0.86c-3.88,1.93-6.38,4.81-7.65,8.8l-15.75,49.47l34.18,10.88l15.76-49.47&#xA;&#x9;&#x9;&#x9;&#x9;C1142.96,1700.1,1142.6,1696.26,1140.54,1692.58z M2092.02,1068.35c-3.51-3.97-7.85-6.07-13.28-6.42l-49.27-3.12l-2.5,39.44&#xA;&#x9;&#x9;&#x9;&#x9;l49.27,3.12c5.41,0.33,9.97-1.25,13.95-4.85c4-3.63,6.13-8.16,6.49-13.83c0.04-0.54,0.05-1.06,0.05-1.59&#xA;&#x9;&#x9;&#x9;&#x9;C2096.74,1076.14,2095.19,1071.97,2092.02,1068.35z M1428.92,1403.63c-1.17-12.88-7.91-25.29-20.05-36.88l-16.81-16.08&#xA;&#x9;&#x9;&#x9;&#x9;c-12.13-11.59-24.84-17.77-37.75-18.35c-12.74-0.58-24.85,5.04-35.99,16.69c-11.14,11.64-16.15,23.95-14.91,36.56&#xA;&#x9;&#x9;&#x9;&#x9;c1.25,12.8,8.04,25.17,20.17,36.77l16.82,16.07c12.13,11.6,24.8,17.82,37.65,18.48c12.84,0.66,24.54-4.74,35.84-16.56&#xA;&#x9;&#x9;&#x9;&#x9;C1425.02,1428.68,1430.09,1416.33,1428.92,1403.63z M1140.54,1692.58c-2.11-3.76-5.33-6.29-9.85-7.72l-3.46-1.1&#xA;&#x9;&#x9;&#x9;&#x9;c-4.27-1.36-8.24-1.08-12.16,0.86c-3.88,1.93-6.38,4.81-7.65,8.8l-15.75,49.47l34.18,10.88l15.76-49.47&#xA;&#x9;&#x9;&#x9;&#x9;C1142.96,1700.1,1142.6,1696.26,1140.54,1692.58z M1232.34,1715.71c-2.1-3.76-5.33-6.29-9.85-7.72l-3.45-1.1&#xA;&#x9;&#x9;&#x9;&#x9;c-4.52-1.44-8.6-1.24-12.5,0.61c-3.8,1.81-6.31,4.73-7.64,8.93l-17.53,55.02l34.54,11l17.51-55.02&#xA;&#x9;&#x9;&#x9;&#x9;C1234.75,1723.24,1234.4,1719.39,1232.34,1715.71z M2092.02,1068.35c-3.51-3.97-7.85-6.07-13.28-6.42l-49.27-3.12l-2.5,39.44&#xA;&#x9;&#x9;&#x9;&#x9;l49.27,3.12c5.41,0.33,9.97-1.25,13.95-4.85c4-3.63,6.13-8.16,6.49-13.83c0.04-0.54,0.05-1.06,0.05-1.59&#xA;&#x9;&#x9;&#x9;&#x9;C2096.74,1076.14,2095.19,1071.97,2092.02,1068.35z M1428.92,1403.63c-1.17-12.88-7.91-25.29-20.05-36.88l-16.81-16.08&#xA;&#x9;&#x9;&#x9;&#x9;c-12.13-11.59-24.84-17.77-37.75-18.35c-12.74-0.58-24.85,5.04-35.99,16.69c-11.14,11.64-16.15,23.95-14.91,36.56&#xA;&#x9;&#x9;&#x9;&#x9;c1.25,12.8,8.04,25.17,20.17,36.77l16.82,16.07c12.13,11.6,24.8,17.82,37.65,18.48c12.84,0.66,24.54-4.74,35.84-16.56&#xA;&#x9;&#x9;&#x9;&#x9;C1425.02,1428.68,1430.09,1416.33,1428.92,1403.63z M1232.34,1715.71c-2.1-3.76-5.33-6.29-9.85-7.72l-3.45-1.1&#xA;&#x9;&#x9;&#x9;&#x9;c-4.52-1.44-8.6-1.24-12.5,0.61c-3.8,1.81-6.31,4.73-7.64,8.93l-17.53,55.02l34.54,11l17.51-55.02&#xA;&#x9;&#x9;&#x9;&#x9;C1234.75,1723.24,1234.4,1719.39,1232.34,1715.71z M1140.54,1692.58c-2.11-3.76-5.33-6.29-9.85-7.72l-3.46-1.1&#xA;&#x9;&#x9;&#x9;&#x9;c-4.27-1.36-8.24-1.08-12.16,0.86c-3.88,1.93-6.38,4.81-7.65,8.8l-15.75,49.47l34.18,10.88l15.76-49.47&#xA;&#x9;&#x9;&#x9;&#x9;C1142.96,1700.1,1142.6,1696.26,1140.54,1692.58z M2092.02,1068.35c-3.51-3.97-7.85-6.07-13.28-6.42l-49.27-3.12l-2.5,39.44&#xA;&#x9;&#x9;&#x9;&#x9;l49.27,3.12c5.41,0.33,9.97-1.25,13.95-4.85c4-3.63,6.13-8.16,6.49-13.83c0.04-0.54,0.05-1.06,0.05-1.59&#xA;&#x9;&#x9;&#x9;&#x9;C2096.74,1076.14,2095.19,1071.97,2092.02,1068.35z M1428.92,1403.63c-1.17-12.88-7.91-25.29-20.05-36.88l-16.81-16.08&#xA;&#x9;&#x9;&#x9;&#x9;c-12.13-11.59-24.84-17.77-37.75-18.35c-12.74-0.58-24.85,5.04-35.99,16.69c-11.14,11.64-16.15,23.95-14.91,36.56&#xA;&#x9;&#x9;&#x9;&#x9;c1.25,12.8,8.04,25.17,20.17,36.77l16.82,16.07c12.13,11.6,24.8,17.82,37.65,18.48c12.84,0.66,24.54-4.74,35.84-16.56&#xA;&#x9;&#x9;&#x9;&#x9;C1425.02,1428.68,1430.09,1416.33,1428.92,1403.63z M1140.54,1692.58c-2.11-3.76-5.33-6.29-9.85-7.72l-3.46-1.1&#xA;&#x9;&#x9;&#x9;&#x9;c-4.27-1.36-8.24-1.08-12.16,0.86c-3.88,1.93-6.38,4.81-7.65,8.8l-15.75,49.47l34.18,10.88l15.76-49.47&#xA;&#x9;&#x9;&#x9;&#x9;C1142.96,1700.1,1142.6,1696.26,1140.54,1692.58z M1232.34,1715.71c-2.1-3.76-5.33-6.29-9.85-7.72l-3.45-1.1&#xA;&#x9;&#x9;&#x9;&#x9;c-4.52-1.44-8.6-1.24-12.5,0.61c-3.8,1.81-6.31,4.73-7.64,8.93l-17.53,55.02l34.54,11l17.51-55.02&#xA;&#x9;&#x9;&#x9;&#x9;C1234.75,1723.24,1234.4,1719.39,1232.34,1715.71z M2092.02,1068.35c-3.51-3.97-7.85-6.07-13.28-6.42l-49.27-3.12l-2.5,39.44&#xA;&#x9;&#x9;&#x9;&#x9;l49.27,3.12c5.41,0.33,9.97-1.25,13.95-4.85c4-3.63,6.13-8.16,6.49-13.83c0.04-0.54,0.05-1.06,0.05-1.59&#xA;&#x9;&#x9;&#x9;&#x9;C2096.74,1076.14,2095.19,1071.97,2092.02,1068.35z M1428.92,1403.63c-1.17-12.88-7.91-25.29-20.05-36.88l-16.81-16.08&#xA;&#x9;&#x9;&#x9;&#x9;c-12.13-11.59-24.84-17.77-37.75-18.35c-12.74-0.58-24.85,5.04-35.99,16.69c-11.14,11.64-16.15,23.95-14.91,36.56&#xA;&#x9;&#x9;&#x9;&#x9;c1.25,12.8,8.04,25.17,20.17,36.77l16.82,16.07c12.13,11.6,24.8,17.82,37.65,18.48c12.84,0.66,24.54-4.74,35.84-16.56&#xA;&#x9;&#x9;&#x9;&#x9;C1425.02,1428.68,1430.09,1416.33,1428.92,1403.63z M1232.34,1715.71c-2.1-3.76-5.33-6.29-9.85-7.72l-3.45-1.1&#xA;&#x9;&#x9;&#x9;&#x9;c-4.52-1.44-8.6-1.24-12.5,0.61c-3.8,1.81-6.31,4.73-7.64,8.93l-17.53,55.02l34.54,11l17.51-55.02&#xA;&#x9;&#x9;&#x9;&#x9;C1234.75,1723.24,1234.4,1719.39,1232.34,1715.71z M1140.54,1692.58c-2.11-3.76-5.33-6.29-9.85-7.72l-3.46-1.1&#xA;&#x9;&#x9;&#x9;&#x9;c-4.27-1.36-8.24-1.08-12.16,0.86c-3.88,1.93-6.38,4.81-7.65,8.8l-15.75,49.47l34.18,10.88l15.76-49.47&#xA;&#x9;&#x9;&#x9;&#x9;C1142.96,1700.1,1142.6,1696.26,1140.54,1692.58z M1428.92,1403.63c-1.17-12.88-7.91-25.29-20.05-36.88l-16.81-16.08&#xA;&#x9;&#x9;&#x9;&#x9;c-12.13-11.59-24.84-17.77-37.75-18.35c-12.74-0.58-24.85,5.04-35.99,16.69c-11.14,11.64-16.15,23.95-14.91,36.56&#xA;&#x9;&#x9;&#x9;&#x9;c1.25,12.8,8.04,25.17,20.17,36.77l16.82,16.07c12.13,11.6,24.8,17.82,37.65,18.48c12.84,0.66,24.54-4.74,35.84-16.56&#xA;&#x9;&#x9;&#x9;&#x9;C1425.02,1428.68,1430.09,1416.33,1428.92,1403.63z M1140.54,1692.58c-2.11-3.76-5.33-6.29-9.85-7.72l-3.46-1.1&#xA;&#x9;&#x9;&#x9;&#x9;c-4.27-1.36-8.24-1.08-12.16,0.86c-3.88,1.93-6.38,4.81-7.65,8.8l-15.75,49.47l34.18,10.88l15.76-49.47&#xA;&#x9;&#x9;&#x9;&#x9;C1142.96,1700.1,1142.6,1696.26,1140.54,1692.58z M1232.34,1715.71c-2.1-3.76-5.33-6.29-9.85-7.72l-3.45-1.1&#xA;&#x9;&#x9;&#x9;&#x9;c-4.52-1.44-8.6-1.24-12.5,0.61c-3.8,1.81-6.31,4.73-7.64,8.93l-17.53,55.02l34.54,11l17.51-55.02&#xA;&#x9;&#x9;&#x9;&#x9;C1234.75,1723.24,1234.4,1719.39,1232.34,1715.71z M1428.92,1403.63c-1.17-12.88-7.91-25.29-20.05-36.88l-16.81-16.08&#xA;&#x9;&#x9;&#x9;&#x9;c-12.13-11.59-24.84-17.77-37.75-18.35c-12.74-0.58-24.85,5.04-35.99,16.69c-11.14,11.64-16.15,23.95-14.91,36.56&#xA;&#x9;&#x9;&#x9;&#x9;c1.25,12.8,8.04,25.17,20.17,36.77l16.82,16.07c12.13,11.6,24.8,17.82,37.65,18.48c12.84,0.66,24.54-4.74,35.84-16.56&#xA;&#x9;&#x9;&#x9;&#x9;C1425.02,1428.68,1430.09,1416.33,1428.92,1403.63z M1232.34,1715.71c-2.1-3.76-5.33-6.29-9.85-7.72l-3.45-1.1&#xA;&#x9;&#x9;&#x9;&#x9;c-4.52-1.44-8.6-1.24-12.5,0.61c-3.8,1.81-6.31,4.73-7.64,8.93l-17.53,55.02l34.54,11l17.51-55.02&#xA;&#x9;&#x9;&#x9;&#x9;C1234.75,1723.24,1234.4,1719.39,1232.34,1715.71z M1140.54,1692.58c-2.11-3.76-5.33-6.29-9.85-7.72l-3.46-1.1&#xA;&#x9;&#x9;&#x9;&#x9;c-4.27-1.36-8.24-1.08-12.16,0.86c-3.88,1.93-6.38,4.81-7.65,8.8l-15.75,49.47l34.18,10.88l15.76-49.47&#xA;&#x9;&#x9;&#x9;&#x9;C1142.96,1700.1,1142.6,1696.26,1140.54,1692.58z M1140.54,1692.58c-2.11-3.76-5.33-6.29-9.85-7.72l-3.46-1.1&#xA;&#x9;&#x9;&#x9;&#x9;c-4.27-1.36-8.24-1.08-12.16,0.86c-3.88,1.93-6.38,4.81-7.65,8.8l-15.75,49.47l34.18,10.88l15.76-49.47&#xA;&#x9;&#x9;&#x9;&#x9;C1142.96,1700.1,1142.6,1696.26,1140.54,1692.58z M1232.34,1715.71c-2.1-3.76-5.33-6.29-9.85-7.72l-3.45-1.1&#xA;&#x9;&#x9;&#x9;&#x9;c-4.52-1.44-8.6-1.24-12.5,0.61c-3.8,1.81-6.31,4.73-7.64,8.93l-17.53,55.02l34.54,11l17.51-55.02&#xA;&#x9;&#x9;&#x9;&#x9;C1234.75,1723.24,1234.4,1719.39,1232.34,1715.71z M1232.34,1715.71c-2.1-3.76-5.33-6.29-9.85-7.72l-3.45-1.1&#xA;&#x9;&#x9;&#x9;&#x9;c-4.52-1.44-8.6-1.24-12.5,0.61c-3.8,1.81-6.31,4.73-7.64,8.93l-17.53,55.02l34.54,11l17.51-55.02&#xA;&#x9;&#x9;&#x9;&#x9;C1234.75,1723.24,1234.4,1719.39,1232.34,1715.71z M1140.54,1692.58c-2.11-3.76-5.33-6.29-9.85-7.72l-3.46-1.1&#xA;&#x9;&#x9;&#x9;&#x9;c-4.27-1.36-8.24-1.08-12.16,0.86c-3.88,1.93-6.38,4.81-7.65,8.8l-15.75,49.47l34.18,10.88l15.76-49.47&#xA;&#x9;&#x9;&#x9;&#x9;C1142.96,1700.1,1142.6,1696.26,1140.54,1692.58z"></path>
&#x9;&#x9;</g>
&#x9;&#x9;<g>
&#x9;&#x9;&#x9;<path style="fill:#FFFFFF;" d="M2687.79,1858.46c-9.24-45.09-22.99-89.42-40.89-131.73c-17.59-41.59-39.37-81.7-64.73-119.21&#xA;&#x9;&#x9;&#x9;&#x9;c-25.1-37.18-53.95-72.14-85.74-103.94c-31.8-31.79-66.76-60.64-103.94-85.74c-37.51-25.35-77.62-47.14-119.21-64.73&#xA;&#x9;&#x9;&#x9;&#x9;c-42.35-17.91-86.68-31.68-131.73-40.9c-46.24-9.45-93.86-14.26-141.54-14.26s-95.29,4.81-141.54,14.27&#xA;&#x9;&#x9;&#x9;&#x9;c-45.05,9.21-89.38,22.98-131.73,40.89c-41.59,17.59-81.7,39.37-119.21,64.73c-37.18,25.1-72.14,53.95-103.94,85.74&#xA;&#x9;&#x9;&#x9;&#x9;c-31.79,31.8-60.64,66.76-85.74,103.93c-25.35,37.53-47.14,77.63-64.73,119.23c-17.91,42.36-31.68,86.68-40.9,131.73&#xA;&#x9;&#x9;&#x9;&#x9;c-9.45,46.24-14.26,93.86-14.26,141.54s4.81,95.29,14.27,141.54c9.21,45.05,22.98,89.37,40.89,131.73&#xA;&#x9;&#x9;&#x9;&#x9;c17.59,41.59,39.37,81.7,64.73,119.21c25.1,37.18,53.95,72.14,85.74,103.94c31.8,31.79,66.76,60.64,103.93,85.74&#xA;&#x9;&#x9;&#x9;&#x9;c37.51,25.37,77.63,47.14,119.23,64.73c42.31,17.9,86.64,31.65,131.73,40.9c46.24,9.45,93.86,14.26,141.54,14.26&#xA;&#x9;&#x9;&#x9;&#x9;s95.29-4.81,141.54-14.27c45.09-9.24,89.42-22.99,131.73-40.89c41.58-17.59,81.7-39.36,119.21-64.72&#xA;&#x9;&#x9;&#x9;&#x9;c37.2-25.12,72.16-53.97,103.94-85.75c31.79-31.8,60.64-66.76,85.74-103.93c25.35-37.53,47.14-77.63,64.73-119.23&#xA;&#x9;&#x9;&#x9;&#x9;c17.9-42.31,31.65-86.64,40.9-131.73c9.45-46.24,14.26-93.86,14.26-141.54S2697.25,1904.71,2687.79,1858.46z M2673.78,2138.65&#xA;&#x9;&#x9;&#x9;&#x9;c-9.08,44.23-22.55,87.64-40.08,129.03c-17.2,40.69-38.54,79.99-63.39,116.8c-24.61,36.44-52.88,70.68-84.01,101.82&#xA;&#x9;&#x9;&#x9;&#x9;c-31.15,31.15-65.41,59.41-101.83,84.01c-36.74,24.84-76.04,46.15-116.78,63.39c-41.41,17.53-84.82,31-129.02,40.07&#xA;&#x9;&#x9;&#x9;&#x9;c-45.31,9.28-91.97,13.97-138.67,13.97c-46.68,0-93.34-4.69-138.66-13.95c-44.22-9.08-87.64-22.55-129.03-40.08&#xA;&#x9;&#x9;&#x9;&#x9;c-40.77-17.24-80.06-38.56-116.8-63.39c-36.44-24.61-70.68-52.88-101.82-84.01c-31.14-31.14-59.4-65.39-84.01-101.83&#xA;&#x9;&#x9;&#x9;&#x9;c-24.85-36.78-46.18-76.08-63.39-116.78c-17.57-41.53-31.04-84.93-40.07-129.02c-9.28-45.31-13.97-91.97-13.97-138.67&#xA;&#x9;&#x9;&#x9;&#x9;c0-46.68,4.69-93.33,13.95-138.66c9.04-44.12,22.52-87.53,40.08-129.03c17.2-40.69,38.54-79.99,63.39-116.8&#xA;&#x9;&#x9;&#x9;&#x9;c24.61-36.44,52.88-70.68,84.01-101.82c31.14-31.14,65.39-59.4,101.83-84.01c36.78-24.85,76.08-46.18,116.78-63.39&#xA;&#x9;&#x9;&#x9;&#x9;c41.5-17.57,84.92-31.04,129.02-40.07c45.31-9.28,91.97-13.97,138.67-13.97c46.68,0,93.34,4.69,138.66,13.95&#xA;&#x9;&#x9;&#x9;&#x9;c44.13,9.04,87.55,22.52,129.03,40.08c40.7,17.21,80,38.54,116.78,63.4c36.44,24.6,70.7,52.86,101.83,84&#xA;&#x9;&#x9;&#x9;&#x9;c31.14,31.14,59.4,65.39,84.01,101.83c24.85,36.78,46.18,76.08,63.39,116.78c17.53,41.41,31,84.82,40.07,129.02&#xA;&#x9;&#x9;&#x9;&#x9;c9.28,45.31,13.97,91.97,13.97,138.67C2687.73,2046.68,2683.04,2093.33,2673.78,2138.65z"></path>
&#x9;&#x9;</g>
&#x9;</g>
&#x9;<g>
&#x9;&#x9;<path style="fill:#FFFFFF;" d="M1801.41,2576.48c4,2.3,10,4.3,16.29,4.3c7.9,0,12.3-3.7,12.3-9.2c0-5.1-3.4-8.1-12-11.2&#xA;&#x9;&#x9;&#x9;c-11.1-4-18.19-9.9-18.19-19.59c0-11,9.2-19.39,23.79-19.39c7.3,0,12.7,1.6,16.19,3.4l-3,9.9c-2.4-1.3-7.1-3.2-13.4-3.2&#xA;&#x9;&#x9;&#x9;c-7.8,0-11.2,4.2-11.2,8.1c0,5.2,3.9,7.6,12.9,11.1c11.7,4.4,17.39,10.3,17.39,19.99c0,10.8-8.2,20.29-25.59,20.29&#xA;&#x9;&#x9;&#x9;c-7.1,0-14.5-2.1-18.19-4.3L1801.41,2576.48z"></path>
&#x9;&#x9;<path style="fill:#FFFFFF;" d="M1862.39,2568.98c0.3,8.8,7.2,12.6,14.99,12.6c5.7,0,9.8-0.8,13.5-2.2l1.8,8.5&#xA;&#x9;&#x9;&#x9;c-4.2,1.7-10,3.1-16.99,3.1c-15.79,0-25.09-9.8-25.09-24.69c0-13.5,8.2-26.19,23.79-26.19c15.89,0,20.99,13,20.99,23.69&#xA;&#x9;&#x9;&#x9;c0,2.3-0.2,4.1-0.4,5.2H1862.39z M1883.78,2560.39c0.1-4.5-1.9-11.9-10.1-11.9c-7.6,0-10.8,6.9-11.3,11.9H1883.78z"></path>
&#x9;&#x9;<path style="fill:#FFFFFF;" d="M1918.37,2527.6c0,3.7-2.7,6.6-7,6.6c-4.1,0-6.8-2.9-6.8-6.6c0-3.8,2.8-6.7,6.9-6.7&#xA;&#x9;&#x9;&#x9;C1915.67,2520.9,1918.27,2523.8,1918.37,2527.6z M1905.27,2589.88v-48.68h12.4v48.68H1905.27z"></path>
&#x9;&#x9;<path style="fill:#FFFFFF;" d="M1944.96,2528.7v12.5h11.7v9.2h-11.7v21.49c0,5.9,1.6,9,6.3,9c2.3,0,3.4-0.2,4.8-0.6l0.2,9.4&#xA;&#x9;&#x9;&#x9;c-1.8,0.7-5,1.3-8.9,1.3c-4.5,0-8.3-1.6-10.6-4.1c-2.6-2.8-3.8-7.2-3.8-13.59v-22.89h-7v-9.2h7v-9L1944.96,2528.7z"></path>
&#x9;&#x9;<path style="fill:#FFFFFF;" d="M2003.64,2536h-0.2l-11.9,6l-2.1-9.3l15.79-7.8h10.3v64.98h-11.9V2536z"></path>
&#x9;&#x9;<path style="fill:#FFFFFF;" d="M2042.92,2581.08c1.9,0.2,3.8,0.1,6.8-0.2c4.8-0.4,9.6-2.1,13.2-5c4.2-3.4,7.1-8.3,8.3-14.4&#xA;&#x9;&#x9;&#x9;l-0.2-0.1c-3.3,3.7-7.9,5.8-14.1,5.8c-11.4,0-19.79-8.2-19.79-20.19c0-12.4,9.6-23.19,23.49-23.19c15.1,0,23.19,11.9,23.19,27.69&#xA;&#x9;&#x9;&#x9;c0,13.89-4.6,23.79-11.3,30.19c-5.7,5.3-13.5,8.3-22.19,8.9c-2.8,0.3-5.6,0.3-7.4,0.2V2581.08z M2059.92,2532.9&#xA;&#x9;&#x9;&#x9;c-6.1,0-10.6,5.5-10.6,13.4c0.1,6.7,3.9,11.9,10.7,11.9c5,0,8.6-2.3,10.5-5.4c0.4-0.8,0.7-1.8,0.7-3.5&#xA;&#x9;&#x9;&#x9;c0.1-8.8-3.2-16.39-11.2-16.39H2059.92z"></path>
&#x9;&#x9;<path style="fill:#FFFFFF;" d="M2102.8,2555.99c-6.8-3.3-9.9-8.7-9.9-14.39c0-10.6,9.4-17.79,21.69-17.79&#xA;&#x9;&#x9;&#x9;c13.99,0,20.39,8.4,20.39,16.39c0,5.5-2.9,11.2-10,14.7v0.3c7.1,2.7,12.4,8.3,12.4,16.39c0,11.6-9.8,19.39-23.69,19.39&#xA;&#x9;&#x9;&#x9;c-15.19,0-23.09-8.7-23.09-17.79c0-8.1,4.7-13.59,12.2-16.89V2555.99z M2124.9,2572.58c0-6.6-4.9-10.2-12.1-12.2&#xA;&#x9;&#x9;&#x9;c-6.1,1.8-9.6,6-9.6,11.4c-0.2,5.5,4,10.5,10.9,10.5C2120.6,2582.28,2124.9,2578.18,2124.9,2572.58z M2104.6,2541.09&#xA;&#x9;&#x9;&#x9;c0,5.3,4.4,8.5,10.6,10.2c4.4-1.3,8.1-4.9,8.1-9.8c0-4.5-2.7-9.2-9.3-9.2C2107.8,2532.3,2104.6,2536.4,2104.6,2541.09z"></path>
&#x9;&#x9;<path style="fill:#FFFFFF;" d="M2147.59,2577.18c2.5,1.5,8.6,4,14.8,4c9.4,0,13.2-5.3,13.1-10.4c0-7.7-7.2-11-14.7-11h-5.7v-9h5.5&#xA;&#x9;&#x9;&#x9;c5.7,0,12.9-2.6,12.9-9.1c0-4.4-3.3-8.1-10.4-8.1c-5.3,0-10.6,2.3-13.3,4.1l-2.8-8.9c3.7-2.6,10.9-5,18.69-5&#xA;&#x9;&#x9;&#x9;c13.4,0,20.29,7.4,20.29,15.89c0,6.8-4,12.4-12,15.2v0.2c7.9,1.4,14.3,7.4,14.3,16.19c0,11-9.2,19.69-25.29,19.69&#xA;&#x9;&#x9;&#x9;c-7.9,0-14.7-2.2-18.19-4.5L2147.59,2577.18z"></path>
&#x9;</g>
</g>
</svg>